<svg width="587" height="377" viewBox="0 0 587 377" fill="none" xmlns="http://www.w3.org/2000/svg">
<g clip-path="url(#clip0_51_71)">
<path d="M38.3067 333.105H186.637C192.033 333.099 197.207 330.95 201.023 327.129C204.839 323.308 206.986 318.128 206.992 312.725V78.4634C206.986 73.0603 204.839 67.8801 201.023 64.0595C197.207 60.2389 192.034 58.0898 186.637 58.0837H38.3067C32.9101 58.0898 27.7364 60.2389 23.9204 64.0595C20.1045 67.8801 17.958 73.0603 17.952 78.4634V312.725C17.958 318.128 20.1045 323.308 23.9204 327.129C27.7364 330.95 32.9102 333.099 38.3067 333.105V333.105Z" fill="#E6E6E6"/>
<path d="M35.8468 70.2445H186.917C188.606 70.2466 190.225 70.9194 191.42 72.1154C192.615 73.3113 193.286 74.9328 193.289 76.6242V313.94C193.286 315.632 192.614 317.253 191.419 318.449C190.225 319.644 188.606 320.317 186.917 320.32H35.8468C34.1575 320.318 32.538 319.645 31.3435 318.449C30.149 317.253 29.477 315.632 29.4749 313.94V76.6242C29.477 74.9328 30.149 73.3113 31.3435 72.1154C32.538 70.9194 34.1575 70.2466 35.8468 70.2445V70.2445Z" fill="white"/>
<path d="M183.011 58.0837C183.011 57.6704 182.847 57.2741 182.555 56.9818C182.263 56.6895 181.867 56.5251 181.454 56.5246H170.866C170.453 56.5246 170.057 56.6889 169.765 56.9813C169.472 57.2737 169.308 57.6702 169.308 58.0837C169.308 58.4972 169.472 58.8938 169.765 59.1861C170.057 59.4785 170.453 59.6428 170.866 59.6428H181.454C181.867 59.6423 182.263 59.4779 182.555 59.1856C182.847 58.8933 183.011 58.497 183.011 58.0837Z" fill="#E6E6E6"/>
<path d="M165.571 58.0837C165.571 57.6704 165.407 57.2741 165.115 56.9818C164.823 56.6895 164.427 56.5251 164.014 56.5246H153.425C153.012 56.5246 152.616 56.6889 152.324 56.9813C152.032 57.2737 151.868 57.6702 151.868 58.0837C151.868 58.4972 152.032 58.8938 152.324 59.1861C152.616 59.4785 153.012 59.6428 153.425 59.6428H164.014C164.427 59.6423 164.823 59.4779 165.115 59.1856C165.407 58.8933 165.571 58.497 165.571 58.0837Z" fill="#E6E6E6"/>
<path d="M60.9297 58.0837C60.9292 57.6704 60.765 57.2741 60.4731 56.9818C60.1812 56.6895 59.7853 56.5251 59.3725 56.5246H48.7838C48.3708 56.5246 47.9748 56.6889 47.6827 56.9813C47.3907 57.2737 47.2266 57.6702 47.2266 58.0837C47.2266 58.4972 47.3907 58.8938 47.6827 59.1861C47.9748 59.4785 48.3708 59.6428 48.7838 59.6428H59.3725C59.7853 59.6423 60.1812 59.4779 60.4731 59.1856C60.765 58.8933 60.9292 58.497 60.9297 58.0837V58.0837Z" fill="#E6E6E6"/>
<path d="M90.4472 315.431C90.4472 317.071 90.4784 318.705 90.5531 320.32H186.917C188.606 320.318 190.225 319.645 191.419 318.449C192.614 317.253 193.286 315.632 193.289 313.94V194.49C164.592 199.132 138.484 213.852 119.639 236.012C100.795 258.173 90.4468 286.327 90.4472 315.431Z" fill="#F2F2F2"/>
<path d="M93.7197 131.23H129.658C131.294 131.23 132.619 132.558 132.619 134.195V137.895C132.619 139.532 131.294 140.859 129.658 140.859H93.7197C92.0843 140.859 90.7586 139.532 90.7586 137.895V134.195C90.7586 132.558 92.0843 131.23 93.7197 131.23Z" fill="#48E0EE"/>
<path d="M70.8783 150.489H152.5C154.135 150.489 155.461 151.816 155.461 153.453V157.153C155.461 158.79 154.135 160.118 152.5 160.118H70.8783C69.243 160.118 67.9172 158.79 67.9172 157.153V153.453C67.9172 151.816 69.243 150.489 70.8783 150.489Z" fill="#E6E6E6"/>
<path d="M70.8783 169.747H152.5C154.135 169.747 155.461 171.074 155.461 172.712V176.411C155.461 178.049 154.135 179.376 152.5 179.376H70.8783C69.243 179.376 67.9172 178.049 67.9172 176.411V172.712C67.9172 171.074 69.243 169.747 70.8783 169.747Z" fill="#E6E6E6"/>
<path d="M84.855 304.101C85.323 304.123 85.7863 304 86.1821 303.749C86.5779 303.498 86.8871 303.131 87.0679 302.699C87.2486 302.266 87.2921 301.788 87.1925 301.33C87.0928 300.871 86.8549 300.455 86.5109 300.136L86.3543 299.513C86.375 299.463 86.3957 299.413 86.4166 299.364C86.888 298.249 87.678 297.298 88.6873 296.631C89.6966 295.964 90.8803 295.611 92.0895 295.616C93.2988 295.62 94.4797 295.982 95.484 296.657C96.4884 297.331 97.2713 298.287 97.7345 299.406C99.5856 303.87 101.942 308.341 102.523 313.061C102.778 315.147 102.67 317.262 102.204 319.311C106.552 309.815 108.809 299.495 108.824 289.049C108.825 286.428 108.679 283.808 108.388 281.203C108.148 279.068 107.814 276.947 107.387 274.842C105.056 263.42 100.053 252.714 92.7879 243.603C89.2715 241.682 86.4277 238.728 84.6398 235.139C83.9921 233.849 83.5344 232.472 83.2808 231.051C83.6774 231.103 84.0806 231.135 84.4773 231.161C84.6008 231.168 84.7309 231.174 84.8544 231.181L84.901 231.183C85.337 231.202 85.7693 231.095 86.146 230.875C86.5226 230.654 86.8275 230.329 87.0239 229.939C87.2204 229.549 87.3 229.11 87.2532 228.676C87.2064 228.241 87.0352 227.83 86.7602 227.49C86.5889 227.279 86.4175 227.068 86.246 226.858C85.9859 226.532 85.7193 226.213 85.4592 225.887C85.4291 225.857 85.4009 225.824 85.3747 225.79C85.0755 225.419 84.7764 225.054 84.4772 224.683C85.0233 223.834 85.7577 223.124 86.6232 222.606C89.621 220.848 93.7568 222.066 95.9222 224.781C98.0942 227.496 98.5038 231.304 97.7495 234.697C97.0077 237.583 95.7807 240.322 94.1209 242.796C94.2835 243.004 94.4526 243.206 94.6152 243.415C97.587 247.241 100.177 251.349 102.348 255.681C101.82 250.828 102.451 245.919 104.187 241.357C105.947 237.106 109.246 233.526 112.152 229.85C115.641 225.436 122.797 227.362 123.412 232.958C123.418 233.013 123.423 233.067 123.429 233.121C122.998 233.365 122.575 233.623 122.162 233.897C121.643 234.244 121.24 234.741 121.008 235.321C120.775 235.901 120.723 236.538 120.858 237.148C120.993 237.759 121.309 238.314 121.765 238.741C122.22 239.169 122.794 239.449 123.411 239.544L123.475 239.554C123.321 241.111 123.049 242.654 122.662 244.17C121.539 248.402 119.556 252.356 116.835 255.784C114.115 259.212 110.717 262.041 106.853 264.093C106.6 264.223 106.353 264.353 106.099 264.477C108.281 270.667 109.649 277.115 110.17 283.658C110.465 287.518 110.447 291.396 110.118 295.254L110.137 295.117C110.97 290.827 113.255 286.957 116.608 284.159C121.587 280.064 128.622 278.556 133.994 275.264C134.564 274.897 135.228 274.701 135.907 274.699C136.585 274.698 137.25 274.89 137.823 275.255C138.395 275.619 138.852 276.139 139.139 276.755C139.426 277.37 139.531 278.055 139.442 278.729C139.434 278.777 139.427 278.824 139.42 278.872C138.619 279.199 137.839 279.575 137.085 279.999C136.654 280.243 136.231 280.501 135.818 280.775C135.299 281.122 134.896 281.618 134.664 282.199C134.431 282.779 134.379 283.416 134.514 284.026C134.649 284.636 134.965 285.192 135.421 285.619C135.876 286.047 136.45 286.326 137.067 286.422L137.131 286.431C137.176 286.438 137.215 286.444 137.261 286.451C135.892 289.722 133.972 292.733 131.584 295.351C128.633 298.521 125.067 301.054 121.104 302.795C117.142 304.536 112.865 305.448 108.538 305.476H108.531C107.357 310.587 105.654 315.561 103.453 320.32H85.3097C85.2446 320.118 85.1861 319.91 85.1276 319.708C86.8069 319.814 88.4929 319.713 90.1478 319.409C88.8017 317.755 87.4556 316.088 86.1095 314.434C86.0795 314.403 86.0513 314.371 86.025 314.337C85.3422 313.49 84.6529 312.65 83.9701 311.804L83.9698 311.803C83.9334 309.209 84.2307 306.62 84.8545 304.102L84.855 304.101ZM105.631 263.181L105.621 263.168L105.631 263.194V263.181ZM109.65 299.453L109.806 299.101C109.799 298.848 109.799 298.594 109.806 298.333C109.806 298.262 109.819 298.19 109.819 298.118C109.76 298.568 109.708 299.017 109.643 299.466L109.65 299.453Z" fill="#3AB3BE"/>
<path d="M43.3984 91.1962H179.366C179.66 91.1897 179.94 91.0682 180.145 90.8576C180.351 90.6471 180.466 90.3642 180.466 90.0696C180.466 89.775 180.351 89.4921 180.145 89.2816C179.94 89.071 179.66 88.9494 179.366 88.9429H43.3984C43.1042 88.9494 42.8243 89.071 42.6186 89.2816C42.4128 89.4921 42.2976 89.775 42.2976 90.0696C42.2976 90.3642 42.4128 90.6471 42.6186 90.8576C42.8243 91.0682 43.1042 91.1897 43.3984 91.1962V91.1962Z" fill="#CACACA"/>
<path d="M172.111 85.685C170.285 85.685 168.804 84.1694 168.804 82.2999C168.804 80.4303 170.285 78.9147 172.111 78.9147C173.938 78.9147 175.418 80.4303 175.418 82.2999C175.418 84.1694 173.938 85.685 172.111 85.685Z" fill="#3F3D56"/>
<path d="M160.686 85.685C158.859 85.685 157.379 84.1694 157.379 82.2999C157.379 80.4303 158.859 78.9147 160.686 78.9147C162.512 78.9147 163.993 80.4303 163.993 82.2999C163.993 84.1694 162.512 85.685 160.686 85.685Z" fill="#3F3D56"/>
<path d="M149.261 85.685C147.434 85.685 145.953 84.1694 145.953 82.2999C145.953 80.4303 147.434 78.9147 149.261 78.9147C151.087 78.9147 152.568 80.4303 152.568 82.2999C152.568 84.1694 151.087 85.685 149.261 85.685Z" fill="#3F3D56"/>
<path d="M48.7128 80.2226H56.1141C56.2608 80.2255 56.4006 80.2859 56.5033 80.3908C56.606 80.4957 56.6636 80.6367 56.6636 80.7837C56.6636 80.9306 56.606 81.0717 56.5033 81.1766C56.4006 81.2815 56.2608 81.3419 56.1141 81.3448H48.7128C48.5661 81.3419 48.4264 81.2815 48.3236 81.1766C48.2209 81.0717 48.1634 80.9306 48.1634 80.7837C48.1634 80.6367 48.2209 80.4957 48.3236 80.3908C48.4264 80.2859 48.5661 80.2255 48.7128 80.2226V80.2226Z" fill="#3F3D56"/>
<path d="M48.7128 82.3288H56.1141C56.2608 82.3317 56.4006 82.3921 56.5033 82.497C56.606 82.6019 56.6636 82.7429 56.6636 82.8899C56.6636 83.0368 56.606 83.1779 56.5033 83.2828C56.4006 83.3877 56.2608 83.4481 56.1141 83.451H48.7128C48.5661 83.4481 48.4264 83.3877 48.3236 83.2828C48.2209 83.1779 48.1634 83.0368 48.1634 82.8899C48.1634 82.7429 48.2209 82.6019 48.3236 82.497C48.4264 82.3921 48.5661 82.3317 48.7128 82.3288V82.3288Z" fill="#3F3D56"/>
<path d="M48.7128 84.4322H56.1141C56.2608 84.4351 56.4006 84.4955 56.5033 84.6004C56.606 84.7053 56.6636 84.8464 56.6636 84.9933C56.6636 85.1402 56.606 85.2813 56.5033 85.3862C56.4006 85.4911 56.2608 85.5515 56.1141 85.5544H48.7128C48.5661 85.5515 48.4264 85.4911 48.3236 85.3862C48.2209 85.2813 48.1634 85.1402 48.1634 84.9933C48.1634 84.8464 48.2209 84.7053 48.3236 84.6004C48.4264 84.4955 48.5661 84.4351 48.7128 84.4322Z" fill="#3F3D56"/>
<path d="M269.319 194.579H348.149C349.264 194.581 350.333 195.026 351.121 195.817C351.908 196.607 352.35 197.679 352.349 198.795V323.476H265.108V198.795C265.108 198.241 265.217 197.693 265.428 197.181C265.64 196.67 265.95 196.205 266.341 195.813C266.732 195.422 267.196 195.111 267.707 194.9C268.218 194.688 268.766 194.579 269.319 194.579ZM308.469 265.422C310.934 265.41 313.295 264.425 315.038 262.679C316.781 260.934 317.766 258.57 317.777 256.102V241.721C317.775 239.251 316.793 236.882 315.048 235.136C313.303 233.39 310.936 232.409 308.469 232.409C306.001 232.409 303.635 233.39 301.889 235.136C300.144 236.882 299.162 239.251 299.16 241.721V256.102C299.172 258.57 300.156 260.934 301.899 262.679C303.642 264.425 306.003 265.41 308.469 265.422V265.422Z" fill="#E6E6E6"/>
<path d="M352.619 319.488V331.518C352.618 332.141 352.37 332.738 351.93 333.179C351.49 333.62 350.893 333.868 350.271 333.869H267.187C266.565 333.866 265.969 333.617 265.529 333.177C265.089 332.737 264.841 332.14 264.838 331.518V319.488L352.619 319.488Z" fill="#CCCCCC"/>
<path d="M138.783 0H475.752C478.647 0.00461141 481.422 1.15813 483.469 3.20778C485.516 5.25742 486.668 8.03601 486.673 10.9347V238.602C486.67 241.501 485.519 244.28 483.471 246.33C481.423 248.381 478.647 249.533 475.752 249.536H138.783C135.887 249.533 133.111 248.381 131.063 246.33C129.016 244.28 127.864 241.501 127.862 238.602V10.9347C127.866 8.03601 129.018 5.25742 131.066 3.20778C133.113 1.15813 135.888 0.00460961 138.783 0Z" fill="#E6E6E6"/>
<path d="M141.596 7.89795H472.936C474.486 7.90132 475.972 8.52019 477.067 9.61877C478.162 10.7174 478.777 12.206 478.777 13.758V235.782C478.774 237.332 478.158 238.818 477.063 239.914C475.968 241.01 474.484 241.627 472.936 241.63H141.596C140.047 241.627 138.563 241.01 137.469 239.914C136.374 238.818 135.758 237.332 135.755 235.782V13.758C135.755 12.206 136.37 10.7174 137.465 9.61877C138.56 8.52019 140.045 7.90132 141.596 7.89795Z" fill="white"/>
<path d="M135.755 13.758V235.782C135.758 237.332 136.374 238.818 137.469 239.914C138.564 241.01 140.048 241.627 141.596 241.63H258.434C271.359 229.628 281.963 215.343 289.714 199.491C290.224 198.47 290.709 197.436 291.171 196.391C298.233 181.048 302.509 164.568 303.799 147.724C303.884 146.69 303.957 145.657 304.006 144.611C304.164 141.937 304.236 139.225 304.236 136.502C304.26 118.39 300.844 100.439 294.17 83.6039C293.769 82.5584 293.344 81.5249 292.907 80.4915C279.477 48.8971 255.208 23.1502 224.483 7.89795H141.596C140.046 7.90132 138.56 8.52019 137.465 9.61877C136.37 10.7174 135.755 12.206 135.755 13.758Z" fill="#48E0EE"/>
<path d="M158.252 38.4879H468.286C468.608 38.481 468.915 38.3479 469.141 38.1172C469.366 37.8864 469.493 37.5764 469.493 37.2534C469.493 36.9305 469.366 36.6205 469.141 36.3897C468.915 36.159 468.608 36.0259 468.286 36.019H158.252C157.929 36.0259 157.622 36.159 157.397 36.3897C157.171 36.6205 157.045 36.9305 157.045 37.2534C157.045 37.5764 157.171 37.8864 157.397 38.1172C157.622 38.3479 157.929 38.481 158.252 38.4879V38.4879Z" fill="#CACACA"/>
<path d="M447.181 29.7163C443.191 29.7163 439.956 26.4052 439.956 22.3207C439.956 18.2362 443.191 14.9251 447.181 14.9251C451.172 14.9251 454.407 18.2362 454.407 22.3207C454.407 26.4052 451.172 29.7163 447.181 29.7163Z" fill="#3F3D56"/>
<path d="M422.221 29.7163C418.23 29.7163 414.995 26.4052 414.995 22.3207C414.995 18.2362 418.23 14.9251 422.221 14.9251C426.211 14.9251 429.446 18.2362 429.446 22.3207C429.446 26.4052 426.211 29.7163 422.221 29.7163Z" fill="#3F3D56"/>
<path d="M397.26 29.7163C393.269 29.7163 390.034 26.4052 390.034 22.3207C390.034 18.2362 393.269 14.9251 397.26 14.9251C401.25 14.9251 404.485 18.2362 404.485 22.3207C404.485 26.4052 401.25 29.7163 397.26 29.7163Z" fill="#3F3D56"/>
<path d="M173.28 16.7582H191.011C191.362 16.7651 191.697 16.9098 191.943 17.1611C192.189 17.4125 192.327 17.7504 192.327 18.1024C192.327 18.4543 192.189 18.7923 191.943 19.0436C191.697 19.2949 191.362 19.4396 191.011 19.4466H173.28C172.929 19.4396 172.594 19.2949 172.348 19.0436C172.102 18.7923 171.964 18.4543 171.964 18.1024C171.964 17.7504 172.102 17.4125 172.348 17.1611C172.594 16.9098 172.929 16.7651 173.28 16.7582V16.7582Z" fill="#3F3D56"/>
<path d="M173.28 21.8039H191.011C191.362 21.8108 191.697 21.9555 191.943 22.2068C192.189 22.4582 192.327 22.7961 192.327 23.1481C192.327 23.5 192.189 23.838 191.943 24.0893C191.697 24.3406 191.362 24.4853 191.011 24.4922H173.28C172.929 24.4853 172.594 24.3406 172.348 24.0893C172.102 23.838 171.964 23.5 171.964 23.1481C171.964 22.7961 172.102 22.4582 172.348 22.2068C172.594 21.9555 172.929 21.8108 173.28 21.8039V21.8039Z" fill="#3F3D56"/>
<path d="M173.28 26.8429H191.011C191.362 26.8499 191.697 26.9946 191.943 27.2459C192.189 27.4972 192.327 27.8351 192.327 28.1871C192.327 28.5391 192.189 28.877 191.943 29.1283C191.697 29.3796 191.362 29.5243 191.011 29.5313H173.28C172.929 29.5243 172.594 29.3796 172.348 29.1283C172.102 28.877 171.964 28.5391 171.964 28.1871C171.964 27.8351 172.102 27.4972 172.348 27.2459C172.594 26.9946 172.929 26.8499 173.28 26.8429V26.8429Z" fill="#3F3D56"/>
<path d="M373.357 110.605H416.713C418.348 110.605 419.674 111.932 419.674 113.57V118.19C419.674 119.828 418.348 121.155 416.713 121.155H373.357C371.722 121.155 370.396 119.828 370.396 118.19V113.57C370.396 111.932 371.722 110.605 373.357 110.605Z" fill="#48E0EE"/>
<path d="M348.33 131.706H441.739C443.374 131.706 444.7 133.033 444.7 134.67V139.291C444.7 140.929 443.374 142.256 441.739 142.256H348.33C346.695 142.256 345.369 140.929 345.369 139.291V134.67C345.369 133.033 346.695 131.706 348.33 131.706Z" fill="#E6E6E6"/>
<path d="M348.33 152.806H441.739C443.374 152.806 444.7 154.134 444.7 155.771V160.392C444.7 162.029 443.374 163.357 441.739 163.357H348.33C346.695 163.357 345.369 162.029 345.369 160.392V155.771C345.369 154.134 346.695 152.806 348.33 152.806Z" fill="#E6E6E6"/>
<path d="M436.593 228.901C436.585 233.246 437.359 237.558 438.876 241.63H472.936C474.484 241.627 475.968 241.01 477.063 239.914C478.158 238.818 478.774 237.332 478.777 235.782V192.89C476.874 192.581 474.949 192.427 473.021 192.428C468.237 192.427 463.5 193.37 459.08 195.203C454.66 197.036 450.644 199.723 447.262 203.11C443.879 206.496 441.196 210.517 439.365 214.943C437.535 219.368 436.592 224.111 436.593 228.901V228.901Z" fill="#48E0EE"/>
<path opacity="0.2" d="M135.451 83.6039V80.4916H187.556V44.4197H190.653V80.4916H250.371V44.4197H253.467V80.4916H292.907C293.344 81.5249 293.769 82.5584 294.17 83.604H253.467V144.611H304.006C303.957 145.657 303.884 146.69 303.799 147.724H253.467V196.391H291.171C290.709 197.437 290.223 198.47 289.713 199.491H253.467V240.402H250.371V199.491H190.653V240.402H187.556V199.491H135.451V196.391H187.556V196.391C187.556 190 186.299 183.671 183.856 177.767C181.413 171.862 177.833 166.497 173.319 161.978C168.806 157.459 163.447 153.874 157.55 151.428C151.653 148.982 145.332 147.724 138.949 147.724H135.451V144.611H187.556V83.6039H135.451ZM190.653 196.391H250.371V147.724H190.653V196.391ZM190.653 144.611H250.371V143.395C250.371 127.538 244.079 112.33 232.88 101.116C221.68 89.9034 206.491 83.6039 190.653 83.6039H190.653V144.611Z" fill="black"/>
<path d="M177.404 218.596C178.068 218.626 178.726 218.451 179.288 218.095C179.851 217.739 180.29 217.218 180.546 216.603C180.803 215.989 180.865 215.31 180.723 214.659C180.582 214.008 180.244 213.417 179.755 212.964C179.674 212.639 179.615 212.405 179.533 212.079C179.562 212.009 179.592 211.938 179.621 211.867C182.609 204.735 192.733 204.784 195.695 211.927C198.324 218.266 201.671 224.617 202.495 231.32C202.858 234.283 202.705 237.286 202.043 240.196C208.218 226.711 211.424 212.053 211.445 197.218C211.446 193.495 211.239 189.775 210.826 186.075C210.484 183.042 210.01 180.031 209.404 177.041C206.094 160.819 198.988 145.614 188.67 132.675C183.676 129.947 179.637 125.752 177.098 120.654C176.178 118.822 175.528 116.866 175.168 114.847C175.731 114.921 176.304 114.968 176.867 115.005C177.043 115.014 177.227 115.023 177.403 115.032L177.469 115.035C178.088 115.063 178.702 114.911 179.237 114.598C179.772 114.284 180.205 113.823 180.484 113.269C180.763 112.715 180.876 112.092 180.81 111.475C180.743 110.858 180.5 110.273 180.11 109.791C179.866 109.492 179.623 109.192 179.379 108.893C179.01 108.43 178.631 107.977 178.262 107.515C178.219 107.471 178.179 107.425 178.142 107.376C177.717 106.849 177.292 106.331 176.867 105.804C177.643 104.599 178.686 103.59 179.915 102.854C184.172 100.358 190.046 102.087 193.122 105.943C196.206 109.799 196.788 115.208 195.717 120.026C194.802 124.15 192.808 127.932 190.563 131.529C190.794 131.824 191.034 132.111 191.265 132.407C195.486 137.841 199.165 143.676 202.248 149.828C201.498 142.936 202.393 135.964 204.86 129.485C207.36 123.447 212.045 118.362 216.171 113.143C221.127 106.873 231.29 109.61 232.163 117.557C232.171 117.634 232.179 117.711 232.187 117.788C231.575 118.134 230.975 118.501 230.388 118.89C229.65 119.383 229.079 120.088 228.749 120.912C228.418 121.736 228.344 122.641 228.536 123.508C228.727 124.375 229.176 125.163 229.824 125.77C230.471 126.377 231.286 126.775 232.162 126.91L232.252 126.924C232.034 129.135 231.648 131.327 231.098 133.48C229.503 139.49 226.686 145.105 222.823 149.974C218.96 154.843 214.133 158.861 208.646 161.775C208.286 161.96 207.935 162.145 207.575 162.32C210.673 171.111 212.617 180.268 213.356 189.561C213.775 195.044 213.75 200.551 213.282 206.03L213.31 205.836C214.492 199.744 217.738 194.247 222.499 190.273C229.571 184.457 239.562 182.315 247.191 177.64C250.864 175.39 255.569 178.298 254.928 182.561C254.918 182.629 254.908 182.697 254.897 182.765C253.76 183.229 252.653 183.763 251.582 184.365C250.969 184.711 250.369 185.078 249.782 185.467C249.045 185.96 248.473 186.665 248.143 187.489C247.812 188.313 247.738 189.217 247.93 190.084C248.122 190.951 248.571 191.74 249.218 192.347C249.865 192.954 250.68 193.351 251.557 193.487L251.646 193.5C251.711 193.51 251.767 193.519 251.831 193.528C249.888 198.174 247.161 202.449 243.769 206.168C239.578 210.67 234.514 214.268 228.886 216.74C223.258 219.213 217.184 220.508 211.038 220.547H211.029C209.361 227.806 206.943 234.871 203.816 241.63H178.049C177.957 241.343 177.874 241.047 177.791 240.76C180.176 240.911 182.57 240.768 184.921 240.335C183.009 237.986 181.097 235.619 179.185 233.271C179.143 233.227 179.103 233.18 179.065 233.132C178.096 231.93 177.117 230.737 176.147 229.535L176.146 229.534C176.095 225.849 176.517 222.173 177.403 218.596L177.404 218.596ZM206.91 160.48L206.896 160.462L206.91 160.499V160.48ZM212.617 211.994L212.839 211.495C212.83 211.134 212.83 210.773 212.839 210.404C212.839 210.302 212.858 210.2 212.858 210.098C212.775 210.736 212.701 211.374 212.608 212.012L212.617 211.994Z" fill="#2F2E41"/>
<path d="M406.848 158.258V123.586C406.848 118.264 408.96 113.159 412.719 109.396C416.477 105.633 421.575 103.518 426.891 103.518H500.259C505.575 103.518 510.673 105.633 514.432 109.396C518.191 113.159 520.302 118.264 520.302 123.586V313.802C520.302 319.124 518.191 324.228 514.432 327.992C510.673 331.755 505.575 333.869 500.259 333.869H426.891C424.259 333.869 421.653 333.35 419.221 332.342C416.789 331.333 414.58 329.855 412.719 327.992C410.857 326.128 409.381 323.916 408.374 321.481C407.367 319.047 406.848 316.437 406.848 313.802V182.939C406.513 182.939 406.191 182.805 405.954 182.568C405.717 182.331 405.584 182.009 405.584 181.673V159.524C405.584 159.188 405.717 158.866 405.954 158.629C406.191 158.392 406.513 158.258 406.848 158.258V158.258Z" fill="#E6E6E6"/>
<path d="M411.114 123.724V313.665C411.113 317.61 412.668 321.396 415.439 324.201C418.211 327.005 421.976 328.602 425.916 328.643C425.971 328.648 426.025 328.651 426.08 328.649H499.806C503.775 328.649 507.581 327.07 510.388 324.26C513.194 321.45 514.771 317.639 514.772 313.665V123.724C514.771 119.75 513.194 115.938 510.388 113.128C507.581 110.318 503.775 108.739 499.806 108.739H490.859C491.298 109.82 491.466 110.994 491.347 112.155C491.227 113.317 490.825 114.431 490.174 115.4C489.524 116.369 488.645 117.164 487.616 117.713C486.587 118.262 485.439 118.55 484.273 118.551H442.241C441.075 118.548 439.929 118.258 438.901 117.708C437.874 117.158 436.997 116.364 436.347 115.395C435.698 114.426 435.296 113.313 435.176 112.153C435.057 110.992 435.223 109.82 435.662 108.739H426.08C422.111 108.739 418.304 110.318 415.498 113.128C412.691 115.938 411.114 119.75 411.114 123.724Z" fill="white"/>
<path d="M425.732 322.787C425.732 324.755 425.793 326.707 425.916 328.643C425.971 328.648 426.025 328.651 426.08 328.649H499.806C503.775 328.649 507.581 327.07 510.388 324.26C513.194 321.45 514.771 317.639 514.772 313.665V229.019C490.751 230.231 468.114 240.64 451.541 258.092C434.969 275.545 425.729 298.706 425.732 322.787V322.787Z" fill="#F2F2F2"/>
<path d="M519.897 177.655C520.349 177.655 520.783 177.475 521.103 177.155C521.423 176.834 521.602 176.4 521.603 175.947V164.331C521.603 163.878 521.423 163.444 521.103 163.123C520.783 162.803 520.349 162.623 519.897 162.623C519.444 162.623 519.01 162.803 518.69 163.123C518.371 163.444 518.191 163.878 518.191 164.331V175.947C518.191 176.4 518.371 176.834 518.691 177.155C519.011 177.475 519.445 177.655 519.897 177.655Z" fill="#E6E6E6"/>
<path d="M453.89 168.381H471.995C473.63 168.381 474.956 169.708 474.956 171.345V175.966C474.956 177.604 473.63 178.931 471.995 178.931H453.89C452.255 178.931 450.929 177.604 450.929 175.966V171.345C450.929 169.708 452.255 168.381 453.89 168.381Z" fill="#48E0EE"/>
<path d="M428.864 189.481H497.022C498.657 189.481 499.983 190.809 499.983 192.446V197.067C499.983 198.704 498.657 200.032 497.022 200.032H428.864C427.228 200.032 425.903 198.704 425.903 197.067V192.446C425.903 190.809 427.228 189.481 428.864 189.481Z" fill="#E6E6E6"/>
<path d="M428.864 210.582H497.022C498.657 210.582 499.983 211.91 499.983 213.547V218.168C499.983 219.805 498.657 221.133 497.022 221.133H428.864C427.228 221.133 425.903 219.805 425.903 218.168V213.547C425.903 211.91 427.228 210.582 428.864 210.582Z" fill="#E6E6E6"/>
<path d="M445.263 317.84C445.575 317.855 445.884 317.773 446.148 317.605C446.412 317.438 446.618 317.194 446.738 316.905C446.859 316.617 446.888 316.299 446.821 315.993C446.755 315.688 446.596 315.41 446.367 315.198L446.263 314.782C446.276 314.749 446.29 314.716 446.304 314.683C446.618 313.94 447.145 313.306 447.818 312.862C448.49 312.417 449.279 312.182 450.085 312.185C450.891 312.188 451.678 312.429 452.347 312.879C453.017 313.328 453.538 313.965 453.847 314.711C455.081 317.686 456.651 320.666 457.038 323.811C457.209 325.202 457.137 326.611 456.826 327.977C459.723 321.648 461.228 314.77 461.238 307.808C461.238 306.061 461.141 304.316 460.947 302.58C460.787 301.156 460.565 299.743 460.28 298.34C458.727 290.728 455.392 283.592 450.55 277.521C448.207 276.24 446.312 274.272 445.12 271.88C444.688 271.02 444.383 270.102 444.214 269.155C444.479 269.189 444.747 269.211 445.012 269.229C445.094 269.233 445.181 269.237 445.263 269.242L445.294 269.243C445.585 269.256 445.873 269.185 446.124 269.038C446.375 268.89 446.578 268.674 446.709 268.414C446.84 268.154 446.893 267.861 446.862 267.572C446.831 267.282 446.716 267.008 446.533 266.782C446.419 266.641 446.305 266.501 446.191 266.36C446.017 266.143 445.84 265.931 445.666 265.714C445.646 265.693 445.627 265.671 445.61 265.649C445.41 265.401 445.211 265.158 445.012 264.911C445.376 264.345 445.865 263.872 446.442 263.527C448.44 262.355 451.196 263.167 452.639 264.976C454.087 266.785 454.36 269.324 453.857 271.585C453.363 273.508 452.545 275.334 451.439 276.983C451.547 277.121 451.66 277.256 451.768 277.395C453.749 279.945 455.475 282.683 456.922 285.57C456.57 282.336 456.99 279.064 458.148 276.024C459.321 273.19 461.519 270.804 463.456 268.355C463.968 267.697 464.663 267.206 465.454 266.943C466.245 266.681 467.096 266.659 467.899 266.881C468.702 267.103 469.422 267.558 469.966 268.189C470.511 268.82 470.857 269.599 470.96 270.426C470.964 270.462 470.968 270.499 470.972 270.535C470.684 270.697 470.403 270.869 470.127 271.052C469.781 271.283 469.513 271.614 469.358 272.001C469.203 272.387 469.168 272.812 469.258 273.219C469.348 273.625 469.559 273.996 469.862 274.28C470.166 274.565 470.549 274.752 470.96 274.815L471.002 274.822C470.9 275.86 470.718 276.888 470.46 277.898C469.712 280.719 468.39 283.354 466.577 285.639C464.764 287.924 462.499 289.809 459.925 291.176C459.756 291.263 459.591 291.35 459.422 291.432C460.876 295.558 461.788 299.855 462.135 304.215C462.331 306.788 462.32 309.373 462.1 311.944L462.113 311.852C462.668 308.994 464.191 306.414 466.425 304.55C469.744 301.82 474.432 300.815 478.012 298.621C478.393 298.377 478.835 298.246 479.287 298.245C479.74 298.244 480.183 298.372 480.564 298.615C480.946 298.858 481.25 299.205 481.441 299.615C481.633 300.025 481.703 300.482 481.643 300.93L481.629 301.026C481.095 301.244 480.575 301.494 480.073 301.777C479.785 301.939 479.504 302.112 479.228 302.294C478.882 302.526 478.614 302.856 478.459 303.243C478.304 303.63 478.269 304.054 478.359 304.461C478.449 304.868 478.66 305.238 478.963 305.523C479.267 305.808 479.65 305.994 480.061 306.057L480.103 306.064C480.133 306.068 480.16 306.073 480.19 306.077C479.278 308.257 477.998 310.263 476.406 312.009C474.44 314.121 472.063 315.809 469.422 316.97C466.781 318.13 463.931 318.738 461.047 318.756H461.043C460.26 322.162 459.126 325.478 457.658 328.649H445.567C445.523 328.515 445.484 328.376 445.445 328.242C446.564 328.312 447.688 328.245 448.791 328.042C447.894 326.94 446.997 325.829 446.1 324.727C446.08 324.706 446.061 324.684 446.043 324.662C445.588 324.098 445.129 323.538 444.674 322.974L444.673 322.973C444.649 321.244 444.847 319.519 445.263 317.841L445.263 317.84ZM459.11 290.569L459.104 290.56L459.11 290.577V290.569ZM461.788 314.742L461.892 314.508C461.888 314.339 461.888 314.17 461.892 313.996C461.892 313.948 461.901 313.901 461.901 313.853C461.862 314.152 461.827 314.452 461.784 314.751L461.788 314.742Z" fill="#3AB3BE"/>
<path d="M520.238 155.107C520.691 155.106 521.124 154.926 521.444 154.606C521.764 154.286 521.944 153.852 521.944 153.399V141.783C521.944 141.33 521.765 140.895 521.445 140.575C521.125 140.254 520.691 140.074 520.238 140.074C519.786 140.074 519.352 140.254 519.032 140.575C518.712 140.895 518.532 141.33 518.532 141.783V153.399C518.533 153.852 518.713 154.286 519.032 154.606C519.352 154.926 519.786 155.106 520.238 155.107V155.107Z" fill="#E6E6E6"/>
<path d="M474.855 110.693C474.854 110.24 474.675 109.806 474.355 109.486C474.035 109.165 473.601 108.985 473.149 108.985H461.547C461.095 108.985 460.661 109.165 460.341 109.485C460.021 109.805 459.841 110.24 459.841 110.693C459.841 111.146 460.021 111.58 460.341 111.901C460.661 112.221 461.095 112.401 461.547 112.401H473.149C473.601 112.401 474.035 112.22 474.355 111.9C474.675 111.58 474.854 111.146 474.855 110.693Z" fill="white"/>
<path d="M519.897 197.471C520.349 197.47 520.783 197.29 521.103 196.97C521.423 196.65 521.602 196.216 521.603 195.763V184.147C521.603 183.694 521.423 183.259 521.103 182.939C520.783 182.618 520.349 182.439 519.897 182.439C519.444 182.439 519.01 182.618 518.69 182.939C518.371 183.259 518.191 183.694 518.191 184.147V195.763C518.191 196.216 518.371 196.65 518.691 196.97C519.011 197.29 519.445 197.47 519.897 197.471V197.471Z" fill="#E6E6E6"/>
<path d="M455.064 112.401C454.121 112.401 453.358 111.636 453.358 110.693C453.358 109.749 454.121 108.985 455.064 108.985C456.006 108.985 456.77 109.749 456.77 110.693C456.77 111.636 456.006 112.401 455.064 112.401Z" fill="white"/>
<path d="M0.812452 333.865L586.187 334.075C586.402 334.074 586.609 333.988 586.76 333.836C586.912 333.683 586.998 333.477 586.998 333.261C586.998 333.046 586.912 332.839 586.76 332.687C586.609 332.534 586.402 332.448 586.187 332.448L0.812452 332.238C0.596942 332.238 0.390271 332.323 0.237881 332.476C0.0854924 332.629 -0.000127649 332.835 -0.000127649 333.051C-0.000127649 333.267 0.0854924 333.474 0.237881 333.627C0.390271 333.779 0.596942 333.865 0.812452 333.865Z" fill="#CACACA"/>
<path d="M336.694 154.496L339.773 155.157C339.793 153.868 339.954 152.584 340.252 151.329C340.532 152.866 341.122 154.329 341.986 155.63L359.645 159.406L376.599 141.491C376.625 132.534 371.657 125.727 362.75 125.727C362.213 125.727 361.657 125.753 361.094 125.805C356.281 124.999 351.344 126.093 347.322 128.858C343.299 131.624 340.505 135.844 339.527 140.63C333.214 146.854 335.504 150.513 336.694 154.496Z" fill="#2F2E41"/>
<path d="M328.012 363.997H321.607L318.559 339.258L328.013 339.259L328.012 363.997Z" fill="#FFB6B6"/>
<path d="M329.601 360.833L319.475 360.228V364.572L309.848 371.229C309.372 371.557 309.014 372.03 308.825 372.576C308.637 373.123 308.628 373.716 308.8 374.269C308.972 374.821 309.316 375.304 309.781 375.647C310.247 375.99 310.81 376.175 311.387 376.175H323.443L325.521 371.878L326.332 376.175H330.877L329.601 360.833Z" fill="#2F2E41"/>
<path d="M403.058 357.016L397.486 360.181L382.643 340.17L390.866 335.5L403.058 357.016Z" fill="#FFB6B6"/>
<path d="M402.88 353.479L393.774 357.956L395.915 361.734L390.823 372.281C390.572 372.801 390.493 373.389 390.599 373.958C390.705 374.527 390.989 375.047 391.411 375.442C391.833 375.838 392.37 376.088 392.944 376.156C393.517 376.224 394.098 376.107 394.601 375.822L405.086 369.865L404.775 365.101L407.599 368.437L411.552 366.192L402.88 353.479Z" fill="#2F2E41"/>
<path d="M304.335 158.83C305.155 158.949 305.94 159.247 306.634 159.702C307.327 160.158 307.913 160.76 308.349 161.466C308.784 162.173 309.06 162.966 309.157 163.791C309.253 164.616 309.168 165.452 308.907 166.24L318.709 174.734L315.006 181.957L301.332 169.767C300.039 169.24 298.983 168.256 298.366 167.002C297.748 165.749 297.612 164.311 297.982 162.963C298.352 161.615 299.203 160.45 300.374 159.688C301.545 158.927 302.954 158.621 304.335 158.83H304.335Z" fill="#FFB6B6"/>
<path d="M314.205 188.041C317.475 192.999 324.803 197.788 335.679 202.033C336.279 202.274 336.922 202.387 337.568 202.366C338.214 202.345 338.848 202.19 339.431 201.91C343.536 200.04 346.166 193.088 346.413 192.413L354.362 181.677C354.503 181.521 358.22 177.297 357.795 173.144C357.699 172.274 357.417 171.435 356.966 170.685C356.516 169.934 355.909 169.29 355.186 168.797C349.169 164.331 335.683 179.843 333.933 181.905L325.131 176.536L318.718 173.671L313.541 167.364L306.252 174.826L312.808 185.268C313.157 186.247 313.627 187.178 314.205 188.041V188.041Z" fill="#2F2E41"/>
<path d="M337.066 207.064C337.066 207.064 318.232 237.102 321.644 240.519C325.056 243.935 330.366 244.832 330.366 244.832L342.118 229.586L337.066 207.064Z" fill="#2F2E41"/>
<path d="M353.719 166.04L344.842 172.052C340.716 174.847 337.613 178.912 336.003 183.632C334.393 188.352 334.365 193.468 335.921 198.206L338.42 205.811L353.719 166.04Z" fill="#2F2E41"/>
<path d="M369.416 248.035L370.603 252.173L374.652 302.082L394.885 339.834L385.228 346.739L357.639 310.829L346.726 275.172L329.589 354.105L316.714 353.184L325.656 243.745L342.624 212.94L369.416 248.035Z" fill="#2F2E41"/>
<path d="M355.229 167.552L342.874 177.661C340.163 179.88 338.21 182.89 337.289 186.273V186.273C336.87 187.809 336.672 189.396 336.698 190.988L337.066 212.94L325.739 243.252C325.739 243.252 356.449 254.868 360.544 244.618C364.639 234.369 355.229 167.552 355.229 167.552Z" fill="#48E0EE"/>
<path d="M351.534 249.939C366.875 249.939 370.614 250.054 370.856 250.005L371.099 249.956V240.717L367.368 224.12C367.804 218.967 368.826 212.172 368.733 206.354C368.399 185.326 369.431 164.784 369.431 164.784L361.311 157.28L357.623 159.684L350.78 166.534C342.826 186.132 336.515 204.582 336.475 205.768L335.975 226.169L338.023 234.369C347.285 240.915 338.822 249.939 351.534 249.939Z" fill="#2F2E41"/>
<path opacity="0.2" d="M365.99 183.104L367.855 194.759L355.229 199.973L365.99 183.104Z" fill="black"/>
<path d="M353.271 155.094C346.443 155.094 340.909 149.552 340.909 142.717C340.909 135.881 346.443 130.34 353.271 130.34C360.098 130.34 365.632 135.881 365.632 142.717C365.632 149.552 360.098 155.094 353.271 155.094Z" fill="#FFB6B6"/>
<path opacity="0.2" d="M373.984 205.516C370.694 209.33 366.231 211.941 361.297 212.94C356.364 213.938 351.238 213.267 346.727 211.032L344.037 209.699L373.984 205.516Z" fill="black"/>
<path d="M330.968 202.667C331.52 202.046 332.2 201.555 332.962 201.226C333.724 200.898 334.548 200.741 335.377 200.766C336.206 200.791 337.019 200.997 337.76 201.371C338.5 201.745 339.15 202.277 339.663 202.93L352.144 199.421L356.124 206.495L338.428 211.202C337.276 211.992 335.875 212.332 334.49 212.157C333.104 211.982 331.831 211.304 330.912 210.252C329.992 209.2 329.49 207.846 329.5 206.448C329.511 205.05 330.033 203.705 330.968 202.667H330.968Z" fill="#FFB6B6"/>
<path d="M360.753 210.517C366.687 210.518 374.716 207.034 384.248 200.287C384.779 199.919 385.228 199.444 385.566 198.892C385.905 198.341 386.125 197.725 386.213 197.084C386.916 192.625 382.572 186.596 382.146 186.018L377.578 173.46C377.526 173.256 376.054 167.823 372.359 165.889C371.581 165.49 370.726 165.264 369.852 165.226C368.978 165.189 368.107 165.342 367.298 165.674C360.26 168.24 365.756 188.055 366.51 190.654L357.185 195.048L351.263 198.828L343.153 199.677L345.355 209.88L357.671 210.157C358.68 210.404 359.715 210.525 360.753 210.517V210.517Z" fill="#2F2E41"/>
<path d="M338.447 134.574C339.437 135.863 342.846 137.003 346.895 137.923C346.889 137.839 346.889 137.754 346.889 137.67C346.909 136.381 347.069 135.097 347.367 133.843C347.647 135.379 348.237 136.842 349.101 138.143C349.166 138.24 349.23 138.337 349.302 138.434C352.775 139.121 356.449 139.652 359.328 140.008C357.349 147.146 349.761 153 350.582 157.34L372.815 161.886C372.678 160.083 372.822 158.27 373.242 156.511C373.667 158.832 374.791 160.968 376.463 162.631L378.352 163.02L378.915 160.241C383.792 148.512 376.994 136.504 365.855 130.293C363.869 127.313 360.785 125.24 357.277 124.529L354.502 123.959C352.752 123.601 350.948 123.591 349.194 123.93C347.44 124.27 345.77 124.952 344.279 125.937C342.788 126.923 341.506 128.193 340.505 129.675C339.504 131.157 338.805 132.822 338.447 134.574Z" fill="#2F2E41"/>
<path d="M285.337 358.958L285.008 351.557C281.581 349.722 277.758 348.754 273.872 348.734C279.221 353.112 278.552 361.552 282.178 367.439C283.323 369.267 284.865 370.813 286.687 371.963C288.51 373.113 290.568 373.838 292.709 374.083L297.185 376.827C297.799 373.399 297.664 369.879 296.788 366.508C295.912 363.138 294.317 359.997 292.113 357.303C290.861 355.804 289.426 354.469 287.841 353.329C286.769 356.159 285.337 358.958 285.337 358.958Z" fill="#3AB3BE"/>
<path d="M274.486 377H430.346C430.561 376.999 430.767 376.913 430.919 376.761C431.071 376.608 431.156 376.402 431.156 376.186C431.156 375.971 431.071 375.764 430.919 375.612C430.767 375.459 430.561 375.373 430.346 375.373H274.486C274.379 375.373 274.273 375.393 274.174 375.434C274.076 375.475 273.986 375.535 273.91 375.61C273.834 375.686 273.774 375.776 273.733 375.875C273.692 375.973 273.671 376.079 273.671 376.186C273.671 376.293 273.692 376.399 273.733 376.498C273.774 376.597 273.834 376.687 273.91 376.763C273.986 376.838 274.076 376.898 274.174 376.939C274.273 376.98 274.379 377 274.486 377Z" fill="#CACACA"/>
</g>
<defs>
<clipPath id="clip0_51_71">
<rect width="587" height="377" fill="white"/>
</clipPath>
</defs>
</svg>
