<svg width="596" height="441" viewBox="0 0 596 441" fill="none" xmlns="http://www.w3.org/2000/svg">
<g clip-path="url(#clip0_44_60)">
<g clip-path="url(#clip1_44_60)">
<path d="M198.56 428.444C180.367 428.444 162.201 428.16 144.062 427.594C118.144 426.785 91.3429 425.948 66.4326 413.936C49.0068 405.533 33.5736 392.052 21.8018 374.949C14.0357 363.578 8.25201 350.97 4.69678 337.663C2.95759 331.261 1.69552 324.738 0.920954 318.149C-1.20022 300.349 0.302773 282.303 5.33924 265.1C7.78509 256.868 11.1177 248.927 15.2783 241.416C33.4443 208.708 66.5779 186.753 106.183 181.179C106.511 181.142 106.841 181.136 107.17 181.161C107.348 181.169 107.526 181.178 107.707 181.171L107.94 181.107C108.54 180.926 109.153 180.789 109.774 180.698C170.856 172.791 235.429 188.789 296.507 226.959C343.732 256.476 406.319 272.37 487.844 275.551L489.001 275.603C511.696 276.737 533.648 284.872 552.488 299.13C570.897 312.952 584.919 331.809 592.864 353.429C593.825 356.044 594.707 358.766 595.483 361.519C596.955 366.727 595.249 371.988 590.803 375.993V375.999L590.6 376.18C590.112 376.603 589.597 377.008 589.071 377.385L588.453 377.828C583.243 381.56 579.128 384.508 574.203 386.797C570.879 388.327 567.391 389.471 563.808 390.209C543.941 394.421 523.766 398.325 503.843 401.815C465.152 408.598 425.441 414.193 385.814 418.445C323.618 425.109 261.111 428.447 198.56 428.444ZM106.707 182.319C106.585 182.318 106.464 182.325 106.343 182.341C67.1077 187.862 34.2878 209.602 16.3019 241.986C12.1823 249.422 8.88272 257.285 6.46118 265.435C1.47036 282.485 -0.0186234 300.37 2.08407 318.012C2.85183 324.543 4.10281 331.008 5.82673 337.354C9.34715 350.534 15.0747 363.021 22.7659 374.284C34.4225 391.219 49.6979 404.565 66.941 412.879C91.6277 424.784 118.302 425.617 144.098 426.422C224.743 428.929 305.464 425.875 385.689 417.28C425.291 413.03 464.976 407.438 503.641 400.66C523.551 397.173 543.711 393.271 563.565 389.062C567.062 388.343 570.466 387.226 573.71 385.733C578.536 383.49 582.612 380.57 587.772 376.875L588.39 376.432C588.842 376.107 589.286 375.76 589.71 375.4L589.832 375.289C594.072 371.573 595.721 366.67 594.356 361.838V361.838C593.588 359.114 592.716 356.421 591.764 353.832C575.792 310.014 534.472 279.048 488.945 276.775L487.794 276.722C450.554 275.269 417.967 271.244 388.174 264.417C352.608 256.267 321.558 243.999 295.887 227.953C235.042 189.929 170.739 173.991 109.923 181.86C109.358 181.945 108.799 182.071 108.252 182.237L107.832 182.339C107.59 182.352 107.353 182.342 107.116 182.332C106.976 182.325 106.84 182.319 106.707 182.319Z" fill="white"/>
<path d="M590.218 375.73V375.736C589.744 376.147 589.246 376.539 588.731 376.909C580.135 383.07 574.261 387.39 563.686 389.636C543.777 393.856 523.796 397.724 503.743 401.237C464.621 408.096 425.291 413.638 385.752 417.862C305.501 426.476 224.752 429.532 144.08 427.008C117.215 426.169 91.304 425.278 66.6871 413.407C48.6929 404.731 33.5738 391.019 22.2842 374.616C10.8365 357.985 3.87423 338.306 1.50269 318.081C7.07688 315.645 12.9989 314.102 19.0519 313.508C40.0617 311.503 60.7378 319.206 79.8446 328.17C98.9573 337.127 117.724 347.597 138.418 351.73C168.914 357.821 200.394 349.538 229.631 338.933C258.868 328.328 287.648 315.232 318.483 311.228C359.841 305.852 401.34 317.231 441.498 328.498C484.273 340.498 527.05 352.5 569.829 364.504C575.942 366.216 582.284 368.051 587.05 372.248C588.232 373.287 589.294 374.455 590.218 375.73Z" fill="#3AB3BE"/>
<path d="M590.218 375.73V375.736C589.744 376.146 589.246 376.539 588.731 376.909C583.343 380.766 579.028 383.908 573.957 386.265C556.525 387.982 539.069 389.469 521.59 390.726C476.602 393.956 431.525 395.674 386.361 395.879C294.739 396.348 198.409 399.22 118.187 354.667C91.4939 339.843 52.8268 370.243 26.383 353.987C18.7606 349.286 11.6777 343.76 5.26191 337.508C3.52915 331.135 2.27258 324.641 1.50259 318.081C-0.620177 300.36 0.875942 282.392 5.90014 265.268C8.33089 257.075 11.6472 249.173 15.7902 241.701C28.0753 246.116 39.8567 252.47 51.0702 259.2C71.635 271.528 91.6318 285.528 114.533 292.586C148.291 302.991 184.812 297.27 219.067 288.664C253.322 280.058 287.349 268.591 322.652 267.624C370.001 266.329 415.575 283.98 459.65 301.35C503.865 318.778 548.087 336.205 592.314 353.63C593.286 356.273 594.155 358.956 594.92 361.678C596.483 367.212 594.217 372.225 590.218 375.73Z" fill="white"/>
<path d="M159.11 150.676C152.451 146.182 153.102 136.348 160.145 132.483C160.288 132.404 160.429 132.323 160.566 132.239C160.919 130.546 161.272 128.854 161.625 127.162C163.703 129.322 167.788 128.915 169.398 126.386C163.782 114.393 156.398 103.314 147.492 93.5192C145.55 91.3736 144.461 88.5904 144.43 85.6955C144.398 82.8006 145.427 79.9944 147.322 77.8072C147.356 77.7674 147.389 77.7274 147.423 77.6871C152.452 75.9866 157.214 73.5791 161.567 70.5368C146.641 46.5286 118.179 27.4556 111.414 0C91.0621 21.8807 88.7774 29.5869 68.4253 51.4676C68.4253 51.4676 49.1541 68.8769 44.9946 78.2329C46.0166 79.3077 55.1666 81.8868 55.5184 84.0001C62.4964 84.5601 74.5854 76.9029 74.5854 76.9029C74.5854 76.9029 48.1991 105.066 40.1879 122.413C39.4665 123.975 38.7813 125.759 39.3857 127.37C39.8682 128.656 41.5991 129.398 42.7139 128.887C41.3822 130.173 40.3129 131.705 39.5656 133.4C41.8903 134.886 44.6477 135.544 47.3921 135.267C50.1365 134.99 52.7074 133.795 54.6894 131.875C53.5736 133.962 52.4578 136.049 51.3419 138.136L51.3439 138.141C52.8514 138.634 54.2043 139.513 55.2688 140.689C56.3334 141.866 57.0729 143.301 57.4142 144.851C57.7555 146.402 57.6867 148.015 57.2148 149.531C56.7429 151.046 55.8841 152.413 54.7233 153.495C47.7989 159.942 41.4718 166.719 39.1535 171.182C36.9724 175.38 59.3665 180.441 64.4035 180.234C69.4404 180.026 74.1486 177.81 78.6979 175.636C78.4762 177.712 78.8729 179.808 79.8383 181.66C82.3297 182.265 84.9168 182.366 87.4476 181.956C89.9785 181.547 92.4021 180.635 94.576 179.275C94.3753 183.428 99.6084 185.721 103.241 184.545C101.427 213.265 102.754 253.593 104.496 295.458H108.818V186.201C109.968 186.784 111.198 187.194 112.469 187.416C121.312 188.987 131.983 189.943 137.737 183.039C144.36 189.725 156.497 189.598 163.081 182.935C162.433 184.085 163.425 186.019 164.893 186.324C166.622 186.683 168.304 185.654 169.772 184.672C176.418 180.224 183.064 175.776 189.71 171.327C181.508 165.792 169.858 157.93 159.11 150.676Z" fill="#2F2E41"/>
<path d="M358.61 137.311C370.136 137.311 379.479 127.956 379.479 116.418C379.479 104.879 370.136 95.5244 358.61 95.5244C347.084 95.5244 337.741 104.879 337.741 116.418C337.741 127.956 347.084 137.311 358.61 137.311Z" fill="white"/>
<path d="M405.32 106.525C404.113 102.478 400.703 99.8352 396.582 99.2555C396.537 99.2491 396.494 99.2575 396.449 99.2546C396.391 99.2368 396.331 99.223 396.271 99.2135C390.434 98.5014 384.528 99.7884 379.515 102.865C374.684 105.884 369.056 107.25 363.366 107.471C363.332 107.473 363.299 107.474 363.265 107.476C361.15 107.617 359.13 108.407 357.48 109.739C355.829 111.071 354.629 112.879 354.042 114.918C353.98 115.168 353.998 115.431 354.095 115.669C354.192 115.908 354.362 116.109 354.581 116.244C355.211 116.779 355.958 117.158 356.761 117.352C358.495 117.72 360.234 118.056 361.98 118.362C365.386 118.959 368.81 119.442 372.251 119.81C379.238 120.559 386.267 120.825 393.29 120.606C395.629 120.533 397.885 120.455 400.028 119.422C401.587 118.651 402.919 117.487 403.894 116.045C404.811 114.659 405.415 113.088 405.661 111.443C405.908 109.799 405.791 108.12 405.32 106.525Z" fill="#F2F2F2"/>
<path d="M361.945 134.383C360.738 130.335 357.327 127.693 353.207 127.113C353.162 127.107 353.119 127.115 353.073 127.112C353.015 127.094 352.956 127.081 352.895 127.071C347.058 126.359 341.152 127.646 336.139 130.723C331.309 133.742 325.681 135.107 319.991 135.329C319.957 135.33 319.924 135.332 319.89 135.333C317.775 135.475 315.755 136.265 314.104 137.597C312.454 138.928 311.253 140.737 310.667 142.776C310.604 143.026 310.623 143.289 310.72 143.527C310.817 143.765 310.987 143.967 311.205 144.102C311.836 144.636 312.583 145.016 313.386 145.21C315.119 145.577 316.858 145.914 318.604 146.22C322.01 146.817 325.434 147.299 328.876 147.667C335.862 148.417 342.892 148.683 349.915 148.463C352.254 148.39 354.51 148.313 356.653 147.279C358.212 146.508 359.544 145.344 360.518 143.902C361.436 142.516 362.039 140.945 362.286 139.301C362.532 137.656 362.416 135.978 361.945 134.383Z" fill="#F2F2F2"/>
<path d="M538.553 221.609C531.893 217.115 532.545 207.281 539.587 203.416C539.73 203.337 539.871 203.256 540.009 203.172C540.362 201.48 540.715 199.788 541.067 198.095C543.145 200.256 547.23 199.848 548.841 197.32C543.225 185.327 535.84 174.247 526.934 164.453C524.993 162.307 523.903 159.524 523.872 156.629C523.841 153.734 524.869 150.928 526.764 148.741C526.798 148.701 526.832 148.661 526.865 148.62C531.894 146.92 536.657 144.513 541.009 141.47C526.083 117.462 497.622 98.389 490.857 70.9334C470.504 92.8141 468.22 100.52 447.868 122.401C447.868 122.401 428.596 139.81 424.437 149.166C425.459 150.241 434.609 152.82 434.961 154.933C441.939 155.494 454.028 147.836 454.028 147.836C454.028 147.836 427.641 175.999 419.63 193.346C418.909 194.908 418.224 196.692 418.828 198.303C419.311 199.589 421.041 200.331 422.156 199.82C420.825 201.106 419.755 202.639 419.008 204.333C421.333 205.819 424.09 206.477 426.834 206.201C429.579 205.924 432.15 204.729 434.132 202.808C433.016 204.895 431.9 206.983 430.784 209.07L430.786 209.074C432.294 209.568 433.647 210.446 434.711 211.623C435.776 212.8 436.515 214.234 436.857 215.785C437.198 217.335 437.129 218.948 436.657 220.464C436.185 221.98 435.326 223.346 434.166 224.428C427.241 230.875 420.914 237.652 418.596 242.115C416.415 246.314 438.809 251.375 443.846 251.167C448.883 250.96 453.591 248.744 458.14 246.569C457.919 248.646 458.315 250.742 459.281 252.593C461.772 253.199 464.359 253.299 466.89 252.89C469.421 252.48 471.844 251.568 474.018 250.208C473.818 254.361 479.051 256.655 482.683 255.479C480.87 284.198 482.196 324.526 483.938 366.392H488.26V257.134C489.411 257.718 490.641 258.127 491.911 258.349C500.754 259.921 511.425 260.876 517.18 253.972C523.803 260.658 535.939 260.531 542.524 253.869C541.876 255.018 542.868 256.953 544.335 257.257C546.064 257.617 547.746 256.588 549.214 255.605C555.86 251.157 562.506 246.709 569.152 242.261C560.951 236.726 549.3 228.863 538.553 221.609Z" fill="#2F2E41"/>
<path d="M36.8728 332.987C37.3061 333.007 37.7352 332.893 38.1017 332.661C38.4682 332.428 38.7546 332.089 38.9219 331.688C39.0893 331.288 39.1296 330.845 39.0373 330.421C38.945 329.996 38.7247 329.611 38.4062 329.316C38.3528 329.103 38.3145 328.951 38.2612 328.739C38.2803 328.693 38.2995 328.646 38.3188 328.6C38.7554 327.568 39.4869 326.688 40.4216 326.07C41.3562 325.453 42.4523 325.126 43.5721 325.13C44.6919 325.134 45.7855 325.469 46.7155 326.094C47.6455 326.718 48.3705 327.604 48.7994 328.639C50.5136 332.772 52.696 336.913 53.2334 341.283C53.47 343.215 53.3702 345.173 52.9383 347.07C56.9644 338.278 59.055 328.722 59.0685 319.049C59.0694 316.622 58.9347 314.197 58.665 311.785C58.4422 309.807 58.1331 307.844 57.7377 305.895C55.5798 295.318 50.9467 285.405 44.2189 276.969C40.9626 275.191 38.3292 272.455 36.6736 269.132C36.0738 267.938 35.6499 266.662 35.415 265.346C35.7823 265.394 36.1557 265.425 36.523 265.449C36.6374 265.455 36.7579 265.461 36.8723 265.467L36.9155 265.469C37.3192 265.487 37.7195 265.388 38.0683 265.183C38.417 264.979 38.6994 264.678 38.8813 264.317C39.0632 263.956 39.1369 263.549 39.0936 263.147C39.0503 262.745 38.8917 262.364 38.6371 262.05C38.4785 261.854 38.3198 261.659 38.161 261.464C37.9201 261.162 37.6732 260.867 37.4323 260.566C37.4045 260.537 37.3784 260.507 37.3541 260.475C37.077 260.131 36.8001 259.794 36.523 259.45C37.0286 258.665 37.7087 258.006 38.5102 257.527C41.2862 255.899 45.1161 257.027 47.1214 259.541C49.1326 262.055 49.512 265.581 48.8135 268.722C48.1266 271.395 46.9903 273.931 45.4533 276.222C45.6039 276.415 45.7605 276.602 45.911 276.795C48.6629 280.337 51.0615 284.142 53.0722 288.153C52.5832 283.659 53.1668 279.113 54.775 274.89C56.4049 270.953 59.4599 267.638 62.1501 264.235C65.3816 260.147 72.0079 261.931 72.5773 267.113C72.5828 267.163 72.5881 267.213 72.5934 267.263C72.1938 267.489 71.8026 267.729 71.4199 267.982C70.9391 268.304 70.5666 268.763 70.3511 269.3C70.1356 269.837 70.0873 270.427 70.2123 270.992C70.3374 271.558 70.6301 272.072 71.052 272.468C71.474 272.863 72.0055 273.122 72.577 273.211L72.6355 273.22C72.4932 274.661 72.2415 276.09 71.8828 277.494C70.8433 281.412 69.0065 285.074 66.4875 288.248C63.9684 291.423 60.8214 294.042 57.2439 295.942C57.009 296.062 56.7802 296.183 56.5453 296.297C57.623 299.337 58.4843 302.45 59.1226 305.611C59.6938 308.399 60.092 311.22 60.3149 314.058C60.588 317.632 60.5719 321.223 60.2668 324.795L60.2848 324.668C61.0557 320.696 63.1721 317.112 66.2765 314.522C70.8874 310.73 77.4018 309.333 82.3762 306.285C82.9048 305.946 83.5195 305.764 84.1477 305.763C84.776 305.761 85.3915 305.939 85.9219 306.277C86.4522 306.614 86.8751 307.096 87.1407 307.666C87.4064 308.236 87.5037 308.87 87.4212 309.493C87.4145 309.538 87.4077 309.582 87.4008 309.627C86.6593 309.929 85.9373 310.277 85.239 310.669C84.8394 310.895 84.4483 311.135 84.0656 311.388C83.5848 311.71 83.2122 312.169 82.9968 312.706C82.7813 313.244 82.7329 313.833 82.858 314.399C82.983 314.964 83.2757 315.478 83.6977 315.874C84.1196 316.27 84.6512 316.528 85.2226 316.617L85.2812 316.626C85.3234 316.632 85.3595 316.638 85.4016 316.644C84.1346 319.673 82.3563 322.46 80.1446 324.885C77.4124 327.82 74.1103 330.165 70.4405 331.777C66.7708 333.389 62.8109 334.234 58.8035 334.259H58.7975C57.7096 338.992 56.1335 343.598 54.0944 348.005H37.2938C37.2335 347.818 37.1794 347.625 37.1251 347.438C38.6803 347.536 40.2415 347.443 41.774 347.161C40.5275 345.629 39.281 344.086 38.0345 342.555C38.0067 342.526 37.9805 342.496 37.9562 342.464C37.3239 341.681 36.6856 340.903 36.0533 340.119L36.053 340.118C36.0193 337.716 36.2946 335.319 36.8723 332.987L36.8728 332.987Z" fill="#3AB3BE"/>
<path d="M537.526 349.401C537.959 349.421 538.388 349.307 538.755 349.075C539.122 348.843 539.408 348.503 539.575 348.103C539.743 347.702 539.783 347.259 539.691 346.835C539.598 346.411 539.378 346.025 539.059 345.73C539.006 345.518 538.968 345.365 538.914 345.153C538.934 345.107 538.953 345.061 538.972 345.015C539.409 343.982 540.14 343.102 541.075 342.485C542.01 341.867 543.106 341.54 544.225 341.544C545.345 341.548 546.439 341.884 547.369 342.508C548.299 343.132 549.024 344.018 549.453 345.054C551.167 349.187 553.349 353.327 553.887 357.697C554.123 359.629 554.024 361.587 553.592 363.485C557.618 354.692 559.708 345.136 559.722 335.464C559.723 333.036 559.588 330.611 559.318 328.199C559.096 326.222 558.786 324.258 558.391 322.309C556.233 311.733 551.6 301.82 544.872 293.384C541.616 291.605 538.983 288.87 537.327 285.547C536.727 284.352 536.303 283.077 536.068 281.761C536.436 281.809 536.809 281.839 537.176 281.863C537.291 281.869 537.411 281.875 537.526 281.881L537.569 281.883C537.972 281.901 538.373 281.802 538.722 281.598C539.07 281.393 539.353 281.093 539.535 280.731C539.716 280.37 539.79 279.964 539.747 279.562C539.704 279.159 539.545 278.778 539.29 278.464C539.132 278.269 538.973 278.073 538.814 277.878C538.573 277.577 538.327 277.281 538.086 276.98C538.058 276.951 538.032 276.921 538.007 276.889C537.73 276.546 537.453 276.208 537.176 275.865C537.682 275.079 538.362 274.421 539.164 273.941C541.94 272.314 545.769 273.441 547.775 275.955C549.786 278.469 550.165 281.996 549.467 285.137C548.78 287.809 547.644 290.345 546.107 292.636C546.257 292.829 546.414 293.016 546.564 293.209C549.316 296.752 551.715 300.556 553.726 304.567C553.237 300.073 553.82 295.528 555.428 291.304C557.058 287.368 560.113 284.052 562.803 280.649C566.035 276.562 572.661 278.346 573.231 283.527C573.236 283.577 573.242 283.628 573.247 283.678C572.847 283.903 572.456 284.143 572.073 284.396C571.592 284.718 571.22 285.177 571.004 285.715C570.789 286.252 570.741 286.842 570.866 287.407C570.991 287.972 571.283 288.486 571.705 288.882C572.127 289.278 572.659 289.537 573.23 289.625L573.289 289.634C573.147 291.076 572.895 292.505 572.536 293.908C571.497 297.827 569.66 301.488 567.141 304.662C564.622 307.837 561.475 310.456 557.897 312.356C557.662 312.476 557.434 312.597 557.199 312.712C559.219 318.443 560.486 324.413 560.968 330.472C561.241 334.046 561.225 337.637 560.92 341.209L560.938 341.082C561.709 337.11 563.825 333.527 566.93 330.936C571.541 327.144 578.055 325.748 583.03 322.7C583.558 322.36 584.173 322.178 584.801 322.177C585.429 322.175 586.045 322.354 586.575 322.691C587.106 323.028 587.528 323.51 587.794 324.08C588.06 324.65 588.157 325.284 588.075 325.908C588.068 325.952 588.061 325.996 588.054 326.041C587.313 326.343 586.591 326.691 585.892 327.084C585.493 327.309 585.102 327.549 584.719 327.802C584.238 328.124 583.866 328.583 583.65 329.121C583.435 329.658 583.386 330.248 583.511 330.813C583.636 331.378 583.929 331.892 584.351 332.288C584.773 332.684 585.305 332.943 585.876 333.031L585.935 333.04C585.977 333.046 586.013 333.052 586.055 333.058C584.788 336.087 583.01 338.875 580.798 341.299C578.066 344.234 574.764 346.58 571.094 348.192C567.424 349.804 563.464 350.648 559.457 350.674H559.451C558.363 355.406 556.787 360.013 554.748 364.419H537.947C537.887 364.232 537.833 364.039 537.779 363.852C539.334 363.95 540.895 363.857 542.427 363.575C541.181 362.044 539.934 360.5 538.688 358.969C538.66 358.941 538.634 358.91 538.61 358.879C537.977 358.095 537.339 357.317 536.707 356.534L536.706 356.533C536.673 354.13 536.948 351.734 537.526 349.402L537.526 349.401Z" fill="#3AB3BE"/>
<path d="M337.85 300.745C338.284 300.765 338.713 300.651 339.079 300.418C339.446 300.186 339.732 299.847 339.899 299.446C340.067 299.045 340.107 298.603 340.015 298.178C339.923 297.754 339.702 297.368 339.384 297.073C339.33 296.861 339.292 296.709 339.239 296.496C339.258 296.45 339.277 296.404 339.296 296.358C339.733 295.325 340.464 294.445 341.399 293.828C342.334 293.21 343.43 292.883 344.55 292.887C345.669 292.891 346.763 293.227 347.693 293.851C348.623 294.476 349.348 295.361 349.777 296.397C351.491 300.53 353.674 304.67 354.211 309.04C354.448 310.972 354.348 312.93 353.916 314.828C357.942 306.035 360.033 296.479 360.046 286.807C360.047 284.38 359.912 281.954 359.643 279.542C359.42 277.565 359.111 275.602 358.715 273.652C356.557 263.076 351.924 253.163 345.196 244.727C341.94 242.948 339.307 240.213 337.651 236.89C337.051 235.695 336.627 234.42 336.393 233.104C336.76 233.152 337.133 233.182 337.501 233.206C337.615 233.212 337.735 233.218 337.85 233.224L337.893 233.226C338.297 233.244 338.697 233.145 339.046 232.941C339.395 232.737 339.677 232.436 339.859 232.074C340.041 231.713 340.114 231.307 340.071 230.905C340.028 230.503 339.869 230.121 339.615 229.807C339.456 229.612 339.297 229.417 339.139 229.221C338.898 228.92 338.651 228.624 338.41 228.323C338.382 228.294 338.356 228.264 338.332 228.233C338.055 227.889 337.778 227.551 337.501 227.208C338.006 226.422 338.686 225.764 339.488 225.285C342.264 223.657 346.094 224.784 348.099 227.298C350.11 229.812 350.49 233.339 349.791 236.48C349.104 239.152 347.968 241.689 346.431 243.979C346.581 244.172 346.738 244.359 346.889 244.552C349.641 248.095 352.039 251.899 354.05 255.91C353.561 251.417 354.144 246.871 355.753 242.647C357.382 238.711 360.437 235.395 363.128 231.992C366.359 227.905 372.986 229.689 373.555 234.87C373.56 234.921 373.566 234.971 373.571 235.021C373.171 235.247 372.78 235.486 372.397 235.739C371.917 236.061 371.544 236.521 371.329 237.058C371.113 237.595 371.065 238.185 371.19 238.75C371.315 239.315 371.608 239.829 372.03 240.225C372.452 240.621 372.983 240.88 373.555 240.968L373.613 240.977C373.471 242.419 373.219 243.848 372.86 245.251C371.821 249.17 369.984 252.831 367.465 256.006C364.946 259.18 361.799 261.799 358.221 263.699C357.987 263.82 357.758 263.94 357.523 264.055C359.543 269.786 360.81 275.756 361.292 281.815C361.566 285.39 361.549 288.98 361.244 292.552L361.262 292.425C362.033 288.454 364.15 284.87 367.254 282.279C371.865 278.487 378.379 277.091 383.354 274.043C383.882 273.703 384.497 273.522 385.125 273.52C385.753 273.519 386.369 273.697 386.899 274.034C387.43 274.371 387.853 274.853 388.118 275.423C388.384 275.993 388.481 276.627 388.399 277.251C388.392 277.295 388.385 277.34 388.378 277.384C387.637 277.686 386.915 278.035 386.217 278.427C385.817 278.653 385.426 278.892 385.043 279.146C384.562 279.467 384.19 279.927 383.974 280.464C383.759 281.001 383.71 281.591 383.835 282.156C383.961 282.721 384.253 283.235 384.675 283.631C385.097 284.027 385.629 284.286 386.2 284.374L386.259 284.383C386.301 284.389 386.337 284.395 386.379 284.401C385.112 287.43 383.334 290.218 381.122 292.642C378.39 295.578 375.088 297.923 371.418 299.535C367.748 301.147 363.788 301.992 359.781 302.017H359.775C358.687 306.75 357.111 311.356 355.072 315.762H338.271C338.211 315.575 338.157 315.382 338.103 315.196C339.658 315.293 341.219 315.2 342.752 314.918C341.505 313.387 340.259 311.844 339.012 310.312C338.984 310.284 338.958 310.254 338.934 310.222C338.301 309.438 337.663 308.661 337.031 307.877L337.03 307.876C336.997 305.474 337.272 303.077 337.85 300.745L337.85 300.745Z" fill="#3AB3BE"/>
<path d="M231.098 428.558L238.128 426.465L233.478 397.693L223.101 400.782L231.098 428.558Z" fill="#FFB6B6"/>
<path d="M187.98 417.202C188.408 417.575 188.837 417.944 189.271 418.313C190.133 419.051 191.007 419.78 191.882 420.5C192.322 420.861 192.767 421.222 193.208 421.578L193.206 421.592L193.234 421.601L193.242 421.608L193.953 421.908L195.458 419.269L196.152 418.054L197.133 416.333L198.93 413.184L208.393 396.604L198.425 392.397L197.784 393.926L197.779 393.926L197.463 394.683L191.51 408.825L190.295 411.716L190.256 411.803L189.526 413.53L188.895 415.026L188.193 416.698L187.98 417.202Z" fill="#FFB6B6"/>
<path d="M135.895 345.448C136.386 346.61 136.891 347.769 137.403 348.919C138.354 351.06 139.342 353.177 140.369 355.272C140.368 355.276 140.373 355.277 140.377 355.283C141.037 356.122 141.792 356.882 142.627 357.546C142.661 357.581 142.701 357.607 142.736 357.637C143.352 358.118 144.026 358.521 144.741 358.837C144.999 358.947 145.262 359.057 145.52 359.167C146.453 359.552 147.382 359.901 148.31 360.226C149.962 360.798 151.611 361.283 153.257 361.68C153.389 361.716 153.522 361.747 153.655 361.778C160.445 363.372 167.26 363.62 174.451 363.395C178.001 363.288 181.644 363.063 185.416 362.828C186.649 362.748 187.886 362.673 189.138 362.601C189.232 362.596 189.332 362.587 189.431 362.583C191.219 362.478 193.035 362.381 194.894 362.297C197.234 362.19 199.643 362.109 202.14 362.066L201.425 365.465C200.864 368.079 199.906 370.59 198.583 372.912C197.066 375.785 195.865 378.058 196.806 383.336L197.258 385.89C196.635 387.025 196.283 388.288 196.229 389.581C196.176 390.875 196.423 392.163 196.95 393.345L197.078 393.626L187.321 410.164L186.689 411.237L190.256 411.802L194.643 412.503L202.079 413.682L216.217 393.833L216.894 392.886L216.902 392.833L222.345 351.244C222.388 350.877 222.418 350.502 222.428 350.129C222.495 348.438 222.225 346.75 221.633 345.164C221.042 343.578 220.141 342.126 218.983 340.892C217.875 339.702 216.541 338.744 215.059 338.075C213.578 337.405 211.978 337.037 210.354 336.992L206.606 336.885L198.949 336.666L193.555 336.515L193.447 336.513L177.54 336.06L177.144 331.317L176.95 331.207L170.769 327.759L149.389 315.831L149.335 315.803L147.928 315.018L147.705 315.278C147.639 315.356 147.572 315.434 147.511 315.513C145.616 317.928 143.973 320.53 142.606 323.278C140.33 327.762 138.311 332.371 136.559 337.084C136.482 337.289 136.413 337.475 136.352 337.643L136.33 337.693C136.302 337.773 136.284 337.824 136.277 337.838C135.409 339.937 135.352 342.657 135.895 345.448Z" fill="#2F2E41"/>
<path d="M137.352 330.034C137.472 329.738 137.613 329.44 137.757 329.152C138.882 326.98 140.126 324.871 141.482 322.836C143.011 320.517 144.793 318.055 146.869 315.414C147.874 314.134 148.946 312.808 150.087 311.436C150.658 310.748 151.249 310.048 151.861 309.337C151.885 309.304 151.912 309.272 151.94 309.242L152.115 309.033L174.096 315.602L174.086 318.616L175.68 322.885L175.572 323.011C175.577 323.012 175.577 323.007 175.572 323.011V322.425L176.157 323.011L181.824 330.021L181.864 330.023L194.528 330.38L207.579 330.75L214.589 330.95C216.214 330.995 217.813 331.363 219.295 332.033C220.776 332.702 222.11 333.66 223.218 334.851C224.376 336.085 225.277 337.537 225.868 339.123C226.46 340.708 226.73 342.396 226.663 344.088C226.653 344.431 226.627 344.781 226.587 345.125L230.636 361.527C233.059 371.337 233.99 381.456 233.396 391.544L235.742 407.509L235.056 407.464L224.836 406.804L222.137 406.632L217.634 397.144C217.121 396.062 216.647 394.958 216.219 393.835C215.512 392.001 214.924 390.124 214.456 388.215L206.562 356.025C205.556 356.038 204.561 356.044 203.577 356.044C199.022 356.061 194.666 355.973 190.509 355.78C176.991 355.159 165.471 353.45 155.43 350.567C152.61 349.761 149.904 348.859 147.311 347.861C146.36 347.498 145.423 347.122 144.503 346.731C144.285 346.642 144.073 346.554 143.861 346.462C141.958 345.635 140.293 344.343 139.018 342.706C137.742 341.068 136.897 339.136 136.561 337.087C136.148 334.708 136.422 332.261 137.352 330.034Z" fill="#2F2E41"/>
<path d="M229.717 423.761L237.324 421.49L238.518 421.132L239.6 425.767L251.535 430.453C252.126 430.684 252.627 431.098 252.965 431.635C253.303 432.171 253.462 432.802 253.416 433.435C253.371 434.068 253.125 434.67 252.714 435.152C252.303 435.635 251.748 435.974 251.131 436.119L238.267 439.138L234.978 435.075L235.186 439.862L230.34 441L227.867 424.316L229.717 423.761Z" fill="#2F2E41"/>
<path d="M187.321 410.165L186.688 411.237L187.14 411.308L187.321 410.165Z" fill="#2F2E41"/>
<path d="M189.564 411.943L196.567 415.688L197.666 416.275L195.178 420.331L200.365 432.068C200.622 432.648 200.687 433.295 200.55 433.914C200.414 434.534 200.083 435.094 199.606 435.512C199.129 435.929 198.531 436.184 197.9 436.237C197.268 436.291 196.636 436.141 196.096 435.809L184.833 428.893L185.352 423.689L182.135 427.236L177.892 424.632L187.86 411.034L189.564 411.943Z" fill="#2F2E41"/>
<path d="M240.167 198.459C240.235 199.236 240.131 200.018 239.864 200.75C239.597 201.483 239.172 202.148 238.621 202.698C238.069 203.249 237.403 203.671 236.671 203.937C235.938 204.202 235.157 204.303 234.381 204.233L226.593 221.51L221.334 213.185L229.536 198.054C229.74 196.757 230.412 195.58 231.425 194.746C232.438 193.912 233.721 193.479 235.031 193.529C236.342 193.579 237.588 194.108 238.535 195.017C239.482 195.925 240.062 197.15 240.167 198.459H240.167Z" fill="#FFB6B6"/>
<path d="M220.356 249.857L184.673 277.192C181.842 279.355 178.27 280.306 174.739 279.836C171.209 279.366 168.009 277.513 165.842 274.683C164.644 273.116 163.805 271.303 163.385 269.374C162.966 267.445 162.975 265.448 163.413 263.523C163.851 261.598 164.707 259.794 165.921 258.238C167.134 256.681 168.674 255.412 170.432 254.518L206.007 236.45L221.921 205.41L232.607 208.59L220.356 249.857Z" fill="#48E0EE"/>
<path d="M144.36 282.33L143.637 308.853C133.681 325.692 132.549 333.869 135.304 338.228L176.241 323.258L176.931 321.608L179.069 309.757L182.944 297.53C183.627 296.252 192.891 288.402 184.206 273.512L166.735 249.948L152.735 249.146C150.427 255.076 154.59 258.312 150.432 259.679C141.029 268.308 142.41 269.712 144.36 282.33Z" fill="#48E0EE"/>
<path d="M116.519 356.792C116.202 356.08 116.045 355.306 116.058 354.527C116.072 353.747 116.256 352.98 116.598 352.279C116.94 351.579 117.432 350.961 118.037 350.471C118.643 349.981 119.349 349.63 120.105 349.443L121.832 330.566L129.518 336.717L126.7 353.699C126.93 354.992 126.679 356.324 125.993 357.443C125.308 358.563 124.236 359.391 122.981 359.773C121.727 360.154 120.376 360.061 119.184 359.512C117.993 358.962 117.045 357.994 116.519 356.792V356.792Z" fill="#FFB6B6"/>
<path d="M118.482 301.734L143.295 264.234C145.265 261.264 148.332 259.197 151.822 258.488C155.312 257.778 158.941 258.484 161.912 260.45C163.556 261.54 164.94 262.979 165.966 264.665C166.991 266.351 167.634 268.242 167.847 270.205C168.061 272.167 167.84 274.153 167.201 276.02C166.562 277.887 165.52 279.591 164.149 281.01L136.417 309.717L131.498 344.257L120.361 344.745L118.482 301.734Z" fill="#48E0EE"/>
<path d="M171.071 216.966C176.021 226.734 172.787 238.048 163.602 243.997C153.669 250.431 140.773 249.022 136.602 236.52C131.957 222.597 135.773 216.624 144.071 209.489C153.795 201.127 165.723 206.413 171.071 216.966Z" fill="#2F2E41"/>
<path d="M146.705 238.725C149.224 242.031 152.952 244.2 157.068 244.756C161.184 245.311 165.353 244.209 168.657 241.689C171.962 239.17 174.133 235.441 174.692 231.32C175.252 227.2 174.155 223.026 171.642 219.715L171.506 219.536C168.939 216.319 165.212 214.241 161.128 213.751C157.045 213.261 152.932 214.397 149.678 216.915C146.424 219.432 144.289 223.13 143.733 227.21C143.178 231.289 144.246 235.424 146.708 238.722L146.705 238.725Z" fill="#FFB6B6"/>
<path d="M175.868 215.385C173.321 217.811 170.216 219.572 166.828 220.513C166.149 219.726 165.344 219.058 164.446 218.536C164.876 219.432 165.171 220.386 165.32 221.368C163.809 224.508 157.638 226.764 151.74 229.072L143.927 215.269L154.268 209.403C162.577 203.652 172.358 206.107 175.868 215.385Z" fill="#2F2E41"/>
<path d="M138.034 209.506C136.627 208.855 134.804 209.257 133.481 210.172C132.222 211.13 131.204 212.369 130.508 213.791C129.244 216.092 128.335 218.571 127.813 221.145C127.367 223.371 127.443 226.063 129.438 227.225C131.103 228.194 133.484 227.584 135.014 226.29C136.544 224.996 137.406 223.177 138.153 221.402C138.899 219.626 139.605 217.785 140.932 216.311L139.554 216.955C139.99 215.631 140.193 214.241 140.154 212.847C140.122 212.153 139.91 211.48 139.538 210.894C139.166 210.308 138.648 209.83 138.034 209.506Z" fill="#2F2E41"/>
<path d="M155.919 211.315L144.826 217.609C141.826 219.31 139.624 222.135 138.705 225.462C137.785 228.789 138.224 232.345 139.924 235.349C142.4 239.723 146.416 243.015 151.187 244.583C155.959 246.15 161.142 245.88 165.726 243.826L155.588 234.867L169.34 241.881L172.277 240.216C157.528 237.531 154.683 225.949 155.919 211.315Z" fill="#2F2E41"/>
</g>
</g>
<defs>
<clipPath id="clip0_44_60">
<rect width="596" height="441" fill="white"/>
</clipPath>
<clipPath id="clip1_44_60">
<rect width="596" height="441" fill="white"/>
</clipPath>
</defs>
</svg>
