<svg width="354" height="233" viewBox="0 0 354 233" fill="none" xmlns="http://www.w3.org/2000/svg">
<g clip-path="url(#clip0_51_98)">
<path d="M231.037 101.738C230.629 103.882 230.139 106.005 229.569 108.106C229.507 108.35 229.438 108.59 229.369 108.834H221.433C220.757 108.835 220.109 109.104 219.631 109.582C219.153 110.06 218.884 110.708 218.883 111.383V134.003C218.643 134.45 218.399 134.895 218.155 135.339C216.895 137.633 215.584 139.901 214.243 142.141C192.389 178.537 161.909 208.994 125.492 230.823L127.649 225.958C126.858 225.903 126.064 225.849 125.274 225.794C108.066 224.618 90.7993 223.314 73.9952 219.447C56.4155 215.402 39.2182 208.385 25.4407 196.752C11.6594 185.114 1.55668 168.496 0.154487 150.515C-0.313068 144.336 0.312017 138.123 2.00107 132.16C5.23136 120.683 12.2896 110.356 22.4725 104.247C38.468 94.6519 59.3328 96.6072 76.195 104.589C93.0536 112.567 106.777 125.773 120.175 138.751C106.647 115.557 87.8119 95.9007 65.2145 81.3942C57.7266 76.6024 49.7799 72.3349 43.4138 66.1266C37.0512 59.9219 32.3567 51.2231 33.4822 42.4077C34.7604 32.4089 42.9513 24.8206 51.1565 18.9692C54.4343 16.6315 57.8177 14.414 61.3067 12.3749C71.1508 6.60723 81.8 2.25597 93.0463 0.642915C108.281 -1.54546 124.735 1.77534 136.415 11.796C149.573 23.0874 154.971 41.2971 154.457 58.7167C162.564 46.9337 175.067 37.9144 189.187 37.5321C203.846 37.1388 217.78 46.3985 225.122 59.0917C232.461 71.7814 233.779 87.3367 231.037 101.738Z" fill="#F2F2F2"/>
<path d="M138.291 150.674C146.877 149.918 154.808 149.035 163.128 146.681C171.192 144.4 178.953 140.58 184.693 134.344C190.868 127.636 194.202 118.925 196.553 110.253C197.864 105.418 198.942 100.516 199.958 95.6118C201.061 90.2908 202.042 84.9463 202.899 79.5783C204.605 68.8931 205.823 58.145 206.553 47.3339C206.641 46.0216 206.722 44.7089 206.795 43.3957C206.841 42.5856 205.58 42.5882 205.535 43.3957C204.935 54.0522 203.857 64.6673 202.299 75.2408C200.762 85.6292 198.795 95.9726 196.3 106.175C194.186 114.818 191.449 123.596 186.028 130.79C180.944 137.537 173.6 141.946 165.672 144.582C157.604 147.265 149.097 148.336 140.666 149.132C139.632 149.23 139.326 149.323 138.291 149.414C137.489 149.485 137.482 150.745 138.291 150.674L138.291 150.674Z" fill="#3AB3BE"/>
<path d="M2.72839 133.09C13.5609 133.69 24.2832 135.579 34.6687 138.717C45.0585 141.848 55.0429 146.193 64.4148 151.662C73.4705 156.951 81.8773 163.279 89.4642 170.518C96.8274 177.548 103.39 185.371 109.031 193.845C114.699 202.339 119.395 211.443 123.033 220.984C123.477 222.152 123.904 223.325 124.315 224.505C124.581 225.266 125.799 224.939 125.531 224.17C122.127 214.427 117.64 205.098 112.154 196.356C106.669 187.614 100.232 179.506 92.9609 172.181C85.573 164.743 77.3508 158.183 68.4576 152.631C49.7849 141.002 28.6195 133.967 6.69938 132.103C5.37712 131.992 4.05346 131.901 2.7284 131.83C1.91807 131.785 1.92055 133.045 2.7284 133.09L2.72839 133.09Z" fill="#3AB3BE"/>
<path d="M61.647 13.8518C68.5731 16.0541 75.1382 19.2615 81.132 23.3715C87.2566 27.5997 92.8424 32.5593 97.7656 38.1403C102.954 44.0113 107.566 50.3666 111.539 57.1187C115.754 64.248 119.415 71.6901 122.491 79.3795C125.658 87.2738 128.322 95.3608 130.466 103.592C132.646 111.92 134.349 120.367 135.566 128.889C136.777 137.321 137.51 145.815 137.761 154.33C138.014 162.472 137.773 170.622 137.04 178.735C136.369 186.304 135.144 193.814 133.375 201.204C131.804 207.878 129.589 214.385 126.763 220.632C126.108 222.05 125.414 223.448 124.679 224.827C124.298 225.542 125.385 226.179 125.767 225.463C128.891 219.496 131.385 213.22 133.209 206.736C135.256 199.519 136.74 192.154 137.647 184.707C138.653 176.628 139.143 168.493 139.113 160.351C139.095 151.798 138.586 143.253 137.588 134.758C136.59 126.157 135.108 117.619 133.149 109.185C131.194 100.737 128.715 92.4189 125.726 84.2792C122.845 76.3996 119.395 68.7395 115.404 61.3595C111.603 54.3171 107.173 47.6325 102.169 41.387C97.4161 35.4405 91.9903 30.0647 85.9997 25.3671C80.2233 20.8509 73.8401 17.1697 67.0378 14.4316C65.3755 13.7701 63.6902 13.1718 61.982 12.6369C61.2066 12.393 60.8748 13.6089 61.647 13.8518H61.647Z" fill="#3AB3BE"/>
<path d="M136.393 233C186.175 233 226.531 231.37 226.531 229.359C226.531 227.348 186.175 225.718 136.393 225.718C86.6108 225.718 46.2544 227.348 46.2544 229.359C46.2544 231.37 86.6108 233 136.393 233Z" fill="#F2F2F2"/>
<path d="M216.031 115.312C215.987 115.508 215.958 115.708 215.944 115.909L200.299 124.933L196.497 122.744L192.443 128.05L200.578 133.847L218.426 119.769C219.154 120.039 219.947 120.08 220.699 119.888C221.451 119.696 222.127 119.279 222.636 118.694C223.146 118.109 223.465 117.382 223.552 116.611C223.638 115.839 223.488 115.06 223.12 114.377C222.753 113.693 222.186 113.137 221.495 112.783C220.804 112.43 220.022 112.295 219.253 112.396C218.483 112.498 217.763 112.831 217.187 113.352C216.612 113.873 216.209 114.556 216.031 115.312V115.312Z" fill="#FFB8B8"/>
<path d="M180.401 120.848L192.72 129.626L198.229 122.72L186.254 113.113C185.739 112.7 185.145 112.396 184.508 112.22C183.871 112.045 183.206 112.001 182.551 112.092C181.897 112.182 181.268 112.405 180.703 112.748C180.138 113.09 179.649 113.544 179.266 114.081V114.081C178.519 115.129 178.219 116.431 178.432 117.7C178.645 118.969 179.353 120.101 180.401 120.848Z" fill="#48E0EE"/>
<path d="M154.972 221.006L159.292 222.138L165.713 206.02L159.338 204.35L154.972 221.006Z" fill="#FFB8B8"/>
<path d="M166.571 228.33L152.996 224.774L154.37 219.53L162.7 221.712C164.091 222.077 165.28 222.979 166.006 224.22C166.732 225.461 166.935 226.939 166.571 228.33V228.33V228.33Z" fill="#2F2E41"/>
<path d="M193.367 224.081L197.762 223.296L196.826 205.972L190.339 207.131L193.367 224.081Z" fill="#FFB8B8"/>
<path d="M206.968 225.863L193.154 228.33L192.201 222.994L200.678 221.48C201.379 221.355 202.097 221.369 202.793 221.521C203.488 221.674 204.147 221.962 204.731 222.369C205.315 222.776 205.813 223.294 206.197 223.893C206.581 224.493 206.843 225.162 206.968 225.863V225.863V225.863Z" fill="#2F2E41"/>
<path d="M184.712 96.6773C185.795 96.9409 186.676 98.0443 187.205 99.3226C187.693 100.665 188.024 102.06 188.19 103.479C188.606 106.121 189.005 108.982 188.145 111.429C187.137 114.297 184.452 115.8 182.122 115.094C179.792 114.388 177.939 111.738 177.306 108.687C176.73 105.605 177.101 102.421 178.371 99.5535C179.033 98.0471 179.945 96.6574 181.158 95.9777C181.752 95.6182 182.461 95.4971 183.141 95.6389C183.821 95.7806 184.423 96.1746 184.824 96.7416" fill="#2F2E41"/>
<path d="M190.84 144.518L199.208 219.452L192.297 222.076L179.55 171.827L161.804 217.772L154.239 218.192C154.239 218.192 164.618 146.703 172.31 145.078L190.84 144.518Z" fill="#2F2E41"/>
<path d="M183.811 106.24C188.752 106.24 192.757 102.236 192.757 97.2972C192.757 92.358 188.752 88.354 183.811 88.354C178.871 88.354 174.866 92.358 174.866 97.2972C174.866 102.236 178.871 106.24 183.811 106.24Z" fill="#FFB8B8"/>
<path d="M187.651 109.992L177.984 108.732C177.984 108.732 171.68 116.295 172.1 129.321C172.521 142.347 171.05 146.339 171.05 146.339L191.204 146.703C188.291 142.698 200.477 119.694 187.651 109.992Z" fill="#48E0EE"/>
<path d="M192.843 148.524C192.642 148.525 192.441 148.542 192.242 148.575L179.876 135.414L181.136 131.212L175.042 128.481L171.26 137.725L189.051 151.875C188.956 152.645 189.097 153.426 189.456 154.114C189.815 154.802 190.375 155.364 191.062 155.726C191.749 156.088 192.529 156.232 193.3 156.14C194.071 156.048 194.795 155.723 195.376 155.209C195.958 154.695 196.369 154.016 196.556 153.263C196.742 152.509 196.694 151.717 196.419 150.991C196.145 150.266 195.655 149.641 195.016 149.2C194.377 148.759 193.62 148.523 192.843 148.524V148.524Z" fill="#FFB8B8"/>
<path d="M179.299 115.113L173.571 129.111L181.557 132.893L188.17 119.04C188.454 118.444 188.614 117.796 188.639 117.136C188.665 116.476 188.555 115.818 188.317 115.202C188.079 114.586 187.718 114.025 187.255 113.553C186.793 113.082 186.239 112.71 185.628 112.46V112.46C185.038 112.218 184.406 112.096 183.769 112.098C183.132 112.101 182.501 112.229 181.914 112.476C181.326 112.722 180.793 113.082 180.344 113.534C179.895 113.987 179.54 114.523 179.299 115.113V115.113Z" fill="#48E0EE"/>
<path d="M181.472 105.428C182.873 104.619 183.023 102.669 182.832 101.063C182.642 99.4562 182.324 97.6652 183.268 96.3517C184.395 94.7839 186.66 94.7527 188.591 94.7016C190.521 94.6504 192.872 94.0852 193.372 92.2203C193.703 90.988 192.996 89.6657 191.981 88.8922C190.966 88.1187 189.697 87.7767 188.463 87.4517C185.702 86.7246 182.852 85.9915 180.026 86.3911C177.226 86.7869 174.695 88.2688 172.98 90.5162C171.265 92.7636 170.504 95.5957 170.862 98.3998C171.319 101.987 171.982 103.553 171.547 105.135C170.736 108.081 167.238 109.973 167.169 113.028C167.114 115.417 169.225 117.26 171.285 118.473C172.918 119.436 174.681 120.252 176.564 120.478C178.447 120.703 180.474 120.272 181.876 118.996C183.685 117.35 184.132 114.601 183.614 112.212C183.095 109.822 181.764 107.701 180.448 105.64" fill="#2F2E41"/>
<path d="M350.722 108.106H221.433C220.564 108.108 219.731 108.453 219.116 109.067C218.502 109.682 218.156 110.515 218.155 111.383V194.403C218.156 195.272 218.502 196.105 219.116 196.719C219.731 197.333 220.564 197.679 221.433 197.68H350.722C351.591 197.679 352.424 197.333 353.038 196.719C353.653 196.105 353.999 195.272 354 194.403V111.383C353.999 110.515 353.653 109.682 353.038 109.067C352.424 108.453 351.591 108.108 350.722 108.106V108.106ZM353.271 194.403C353.271 195.079 353.002 195.727 352.524 196.205C352.046 196.682 351.398 196.951 350.722 196.952H221.433C220.757 196.951 220.109 196.682 219.631 196.205C219.153 195.727 218.884 195.079 218.883 194.403V111.383C218.884 110.708 219.153 110.06 219.631 109.582C220.109 109.104 220.757 108.835 221.433 108.834H350.722C351.398 108.835 352.046 109.104 352.524 109.582C353.002 110.06 353.271 110.708 353.271 111.383V194.403Z" fill="#3F3D56"/>
<path d="M249.03 149.432H228.635C227.814 149.431 227.027 149.105 226.447 148.525C225.867 147.945 225.54 147.158 225.539 146.337V125.947C225.54 125.126 225.867 124.339 226.447 123.759C227.027 123.179 227.814 122.853 228.635 122.852H249.03C249.85 122.853 250.637 123.179 251.218 123.759C251.798 124.339 252.124 125.126 252.125 125.947V146.337C252.124 147.158 251.798 147.945 251.218 148.525C250.637 149.105 249.85 149.431 249.03 149.432V149.432Z" fill="#48E0EE"/>
<path d="M343.989 171.101H228.174C227.547 171.101 226.944 170.852 226.5 170.408C226.057 169.964 225.807 169.362 225.807 168.734C225.807 168.107 226.057 167.505 226.5 167.061C226.944 166.617 227.547 166.367 228.174 166.367H343.989C344.617 166.367 345.219 166.617 345.663 167.061C346.107 167.505 346.356 168.107 346.356 168.734C346.356 169.362 346.107 169.964 345.663 170.408C345.219 170.852 344.617 171.101 343.989 171.101V171.101Z" fill="#CCCCCC"/>
<path d="M344.066 159.631H228.252C227.624 159.631 227.022 159.382 226.578 158.938C226.134 158.494 225.885 157.892 225.885 157.264C225.885 156.637 226.134 156.035 226.578 155.591C227.022 155.147 227.624 154.898 228.252 154.898H344.066C344.694 154.898 345.296 155.147 345.74 155.591C346.184 156.035 346.434 156.637 346.434 157.264C346.434 157.892 346.184 158.494 345.74 158.938C345.296 159.382 344.694 159.631 344.066 159.631V159.631Z" fill="#CCCCCC"/>
<path d="M286.888 143.97H269.77C269.143 143.97 268.54 143.721 268.096 143.277C267.652 142.833 267.403 142.231 267.403 141.604C267.403 140.976 267.652 140.374 268.096 139.93C268.54 139.486 269.143 139.237 269.77 139.237H286.888C287.515 139.237 288.118 139.486 288.561 139.93C289.005 140.374 289.255 140.976 289.255 141.604C289.255 142.231 289.005 142.833 288.561 143.277C288.118 143.721 287.515 143.97 286.888 143.97V143.97Z" fill="#CCCCCC"/>
<path d="M344.066 132.322H269.77C269.143 132.322 268.54 132.073 268.096 131.629C267.652 131.185 267.403 130.583 267.403 129.955C267.403 129.327 267.652 128.725 268.096 128.282C268.54 127.838 269.143 127.588 269.77 127.588H344.066C344.694 127.588 345.296 127.838 345.74 128.282C346.184 128.725 346.434 129.327 346.434 129.955C346.434 130.583 346.184 131.185 345.74 131.629C345.296 132.073 344.694 132.322 344.066 132.322V132.322Z" fill="#CCCCCC"/>
<path d="M283.974 182.753H228.174C227.547 182.753 226.944 182.504 226.5 182.06C226.057 181.616 225.807 181.014 225.807 180.386C225.807 179.758 226.057 179.156 226.5 178.713C226.944 178.269 227.547 178.019 228.174 178.019H283.974C284.602 178.019 285.204 178.269 285.648 178.713C286.092 179.156 286.341 179.758 286.341 180.386C286.341 181.014 286.092 181.616 285.648 182.06C285.204 182.504 284.602 182.753 283.974 182.753V182.753Z" fill="#CCCCCC"/>
</g>
<defs>
<clipPath id="clip0_51_98">
<rect width="354" height="233" fill="white"/>
</clipPath>
</defs>
</svg>
